<svg xmlns="http://www.w3.org/2000/svg" width="563" height="293" fill="none" viewBox="0 0 563 293"><path fill="#000" stroke="#fff" d="M412.226 115.759L411.788 114.962L411.349 115.759L377.562 177.171L377.154 177.912H378H445.522H446.367L445.96 177.171L412.226 115.759ZM384.795 173.384L408.915 129.445L432.677 173.384H384.795Z"/><mask id="path-2-outside-1" width="194" height="75" x="94" y="109" fill="#000" maskUnits="userSpaceOnUse"><rect width="194" height="75" x="94" y="109" fill="#fff"/><path d="M154.211 169.51C150.197 169.51 147.28 168.761 145.459 167.262C143.685 165.763 142.798 163.234 142.798 159.674C142.798 157.144 143.218 153.959 144.059 150.118L147.42 134.661C147.56 134.005 147.63 133.443 147.63 132.975C147.63 131.617 147.046 130.61 145.879 129.954C144.712 129.251 142.658 128.923 139.718 128.97L140.698 125.106C144.339 125.059 147.116 125.645 149.03 126.862C150.944 128.08 151.901 129.837 151.901 132.132C151.901 132.46 151.854 132.998 151.761 133.748L148.19 150.118C147.443 153.444 147.069 156.254 147.069 158.55C147.069 161.126 147.653 162.953 148.82 164.03C149.987 165.107 151.831 165.646 154.351 165.646C156.078 165.646 157.525 165.271 158.692 164.522C159.859 163.725 161.236 162.273 162.823 160.166L166.044 162.484C164.037 165.154 162.17 167.004 160.443 168.035C158.762 169.018 156.685 169.51 154.211 169.51ZM152.391 117.869C151.037 117.869 150.057 117.658 149.45 117.237C148.843 116.768 148.54 116.042 148.54 115.059C148.54 114.59 148.61 114.075 148.75 113.513C149.03 112.155 149.497 111.241 150.15 110.773C150.804 110.258 151.854 110 153.301 110C154.655 110 155.635 110.211 156.242 110.632C156.849 111.054 157.152 111.756 157.152 112.74C157.152 113.349 157.105 113.841 157.012 114.216C156.685 115.621 156.195 116.581 155.542 117.096C154.888 117.611 153.838 117.869 152.391 117.869Z"/><path d="M180.502 183C178.168 183 176.278 182.532 174.831 181.595C173.43 180.658 172.753 179.393 172.8 177.801C172.8 176.068 173.827 174.569 175.881 173.304C177.935 172.039 180.829 171.056 184.563 170.353C188.344 169.651 192.732 169.299 197.726 169.299H198.637C199.524 167.754 200.364 165.084 201.157 161.29C200.41 162.461 198.777 163.421 196.256 164.17C193.782 164.92 191.331 165.295 188.904 165.295C185.31 165.295 182.393 164.194 180.152 161.992C177.958 159.744 176.861 156.793 176.861 153.14C176.861 148.549 178.098 144.006 180.572 139.509C183.046 134.966 186.174 131.265 189.954 128.408C193.782 125.551 197.493 124.122 201.087 124.122C204.448 124.122 207.015 124.614 208.789 125.598C210.61 126.534 211.497 128.174 211.45 130.516C211.45 131.593 210.866 135.083 209.699 140.985C208.533 146.84 207.249 152.695 205.848 158.55C204.448 164.405 203.445 167.988 202.838 169.299C204.051 169.299 205.078 169.252 205.919 169.159C206.759 169.065 207.786 168.831 208.999 168.456L207.949 172.391C206.362 172.859 204.051 173.093 201.017 173.093C199.197 176.091 196.396 178.48 192.615 180.26C188.881 182.087 184.843 183 180.502 183ZM189.044 161.43C192.078 161.43 194.482 161.243 196.256 160.868C198.03 160.447 199.454 159.65 200.527 158.479C201.601 157.261 202.394 155.458 202.908 153.069L203.748 149.205C204.775 144.334 205.615 140.235 206.269 136.91C206.969 133.584 207.342 131.593 207.389 130.937C207.389 129.954 207.179 129.275 206.759 128.9C206.339 128.478 205.732 128.221 204.938 128.127C204.145 128.033 202.814 127.987 200.947 127.987C198.193 127.987 195.229 129.251 192.055 131.781C188.928 134.31 186.29 137.518 184.143 141.406C181.996 145.294 180.922 149.158 180.922 152.999C180.969 155.528 181.716 157.566 183.163 159.112C184.656 160.657 186.617 161.43 189.044 161.43ZM181.482 179.136C184.19 179.136 186.874 178.574 189.534 177.449C192.195 176.372 194.389 174.944 196.116 173.164C190.515 173.351 185.917 173.866 182.323 174.709C178.728 175.552 176.931 176.536 176.931 177.66C176.931 178.082 177.351 178.433 178.192 178.714C179.078 178.995 180.175 179.136 181.482 179.136Z"/><path d="M251.254 167.051C250.647 167.8 249.714 168.386 248.453 168.808C247.24 169.276 245.979 169.51 244.672 169.51C243.179 169.51 241.942 169.112 240.962 168.316C240.028 167.519 239.561 166.512 239.561 165.295C239.561 163.421 239.725 162.156 240.051 161.5C238.698 163.936 236.971 165.88 234.87 167.332C232.769 168.784 230.646 169.51 228.498 169.51C224.904 169.51 221.987 168.363 219.746 166.067C217.552 163.772 216.479 160.774 216.525 157.074C216.525 152.296 217.716 147.331 220.096 142.179C222.524 137.027 225.558 132.741 229.199 129.321C232.839 125.855 236.41 124.122 239.911 124.122C243.319 124.122 245.886 124.614 247.613 125.598C249.387 126.581 250.274 128.268 250.274 130.656C250.274 131.265 249.76 134.052 248.734 139.017C247.707 143.936 246.12 151.43 243.972 161.5L243.692 163.608C243.739 164.217 243.972 164.709 244.392 165.084C244.813 165.458 245.373 165.646 246.073 165.646C246.586 165.646 247.146 165.482 247.753 165.154C248.36 164.826 248.897 164.381 249.364 163.819L251.254 167.051ZM228.638 165.646C231.299 165.646 233.89 164.241 236.41 161.43C238.931 158.62 240.915 154.966 242.362 150.47L243.062 147.167C243.389 145.575 243.972 142.671 244.813 138.455C245.699 134.193 246.166 131.687 246.213 130.937C246.166 129.813 245.653 129.04 244.672 128.619C243.739 128.197 242.105 127.987 239.771 127.987C237.111 127.987 234.287 129.556 231.299 132.694C228.312 135.785 225.768 139.626 223.667 144.217C221.613 148.76 220.586 152.999 220.586 156.934C220.633 159.557 221.38 161.664 222.827 163.257C224.274 164.85 226.211 165.646 228.638 165.646Z"/><path d="M106.993 125.879L96 113.583L99.5709 110.422L110.564 122.717L106.993 125.879Z"/><path d="M282.429 125.879L271.436 113.583L275.007 110.422L286 122.717L282.429 125.879Z"/></mask><path fill="url(#paint0_linear)" d="M154.211 169.51C150.197 169.51 147.28 168.761 145.459 167.262C143.685 165.763 142.798 163.234 142.798 159.674C142.798 157.144 143.218 153.959 144.059 150.118L147.42 134.661C147.56 134.005 147.63 133.443 147.63 132.975C147.63 131.617 147.046 130.61 145.879 129.954C144.712 129.251 142.658 128.923 139.718 128.97L140.698 125.106C144.339 125.059 147.116 125.645 149.03 126.862C150.944 128.08 151.901 129.837 151.901 132.132C151.901 132.46 151.854 132.998 151.761 133.748L148.19 150.118C147.443 153.444 147.069 156.254 147.069 158.55C147.069 161.126 147.653 162.953 148.82 164.03C149.987 165.107 151.831 165.646 154.351 165.646C156.078 165.646 157.525 165.271 158.692 164.522C159.859 163.725 161.236 162.273 162.823 160.166L166.044 162.484C164.037 165.154 162.17 167.004 160.443 168.035C158.762 169.018 156.685 169.51 154.211 169.51ZM152.391 117.869C151.037 117.869 150.057 117.658 149.45 117.237C148.843 116.768 148.54 116.042 148.54 115.059C148.54 114.59 148.61 114.075 148.75 113.513C149.03 112.155 149.497 111.241 150.15 110.773C150.804 110.258 151.854 110 153.301 110C154.655 110 155.635 110.211 156.242 110.632C156.849 111.054 157.152 111.756 157.152 112.74C157.152 113.349 157.105 113.841 157.012 114.216C156.685 115.621 156.195 116.581 155.542 117.096C154.888 117.611 153.838 117.869 152.391 117.869Z"/><path fill="url(#paint1_linear)" d="M180.502 183C178.168 183 176.278 182.532 174.831 181.595C173.43 180.658 172.753 179.393 172.8 177.801C172.8 176.068 173.827 174.569 175.881 173.304C177.935 172.039 180.829 171.056 184.563 170.353C188.344 169.651 192.732 169.299 197.726 169.299H198.637C199.524 167.754 200.364 165.084 201.157 161.29C200.41 162.461 198.777 163.421 196.256 164.17C193.782 164.92 191.331 165.295 188.904 165.295C185.31 165.295 182.393 164.194 180.152 161.992C177.958 159.744 176.861 156.793 176.861 153.14C176.861 148.549 178.098 144.006 180.572 139.509C183.046 134.966 186.174 131.265 189.954 128.408C193.782 125.551 197.493 124.122 201.087 124.122C204.448 124.122 207.015 124.614 208.789 125.598C210.61 126.534 211.497 128.174 211.45 130.516C211.45 131.593 210.866 135.083 209.699 140.985C208.533 146.84 207.249 152.695 205.848 158.55C204.448 164.405 203.445 167.988 202.838 169.299C204.051 169.299 205.078 169.252 205.919 169.159C206.759 169.065 207.786 168.831 208.999 168.456L207.949 172.391C206.362 172.859 204.051 173.093 201.017 173.093C199.197 176.091 196.396 178.48 192.615 180.26C188.881 182.087 184.843 183 180.502 183ZM189.044 161.43C192.078 161.43 194.482 161.243 196.256 160.868C198.03 160.447 199.454 159.65 200.527 158.479C201.601 157.261 202.394 155.458 202.908 153.069L203.748 149.205C204.775 144.334 205.615 140.235 206.269 136.91C206.969 133.584 207.342 131.593 207.389 130.937C207.389 129.954 207.179 129.275 206.759 128.9C206.339 128.478 205.732 128.221 204.938 128.127C204.145 128.033 202.814 127.987 200.947 127.987C198.193 127.987 195.229 129.251 192.055 131.781C188.928 134.31 186.29 137.518 184.143 141.406C181.996 145.294 180.922 149.158 180.922 152.999C180.969 155.528 181.716 157.566 183.163 159.112C184.656 160.657 186.617 161.43 189.044 161.43ZM181.482 179.136C184.19 179.136 186.874 178.574 189.534 177.449C192.195 176.372 194.389 174.944 196.116 173.164C190.515 173.351 185.917 173.866 182.323 174.709C178.728 175.552 176.931 176.536 176.931 177.66C176.931 178.082 177.351 178.433 178.192 178.714C179.078 178.995 180.175 179.136 181.482 179.136Z"/><path fill="url(#paint2_linear)" d="M251.254 167.051C250.647 167.8 249.714 168.386 248.453 168.808C247.24 169.276 245.979 169.51 244.672 169.51C243.179 169.51 241.942 169.112 240.962 168.316C240.028 167.519 239.561 166.512 239.561 165.295C239.561 163.421 239.725 162.156 240.051 161.5C238.698 163.936 236.971 165.88 234.87 167.332C232.769 168.784 230.646 169.51 228.498 169.51C224.904 169.51 221.987 168.363 219.746 166.067C217.552 163.772 216.479 160.774 216.525 157.074C216.525 152.296 217.716 147.331 220.096 142.179C222.524 137.027 225.558 132.741 229.199 129.321C232.839 125.855 236.41 124.122 239.911 124.122C243.319 124.122 245.886 124.614 247.613 125.598C249.387 126.581 250.274 128.268 250.274 130.656C250.274 131.265 249.76 134.052 248.734 139.017C247.707 143.936 246.12 151.43 243.972 161.5L243.692 163.608C243.739 164.217 243.972 164.709 244.392 165.084C244.813 165.458 245.373 165.646 246.073 165.646C246.586 165.646 247.146 165.482 247.753 165.154C248.36 164.826 248.897 164.381 249.364 163.819L251.254 167.051ZM228.638 165.646C231.299 165.646 233.89 164.241 236.41 161.43C238.931 158.62 240.915 154.966 242.362 150.47L243.062 147.167C243.389 145.575 243.972 142.671 244.813 138.455C245.699 134.193 246.166 131.687 246.213 130.937C246.166 129.813 245.653 129.04 244.672 128.619C243.739 128.197 242.105 127.987 239.771 127.987C237.111 127.987 234.287 129.556 231.299 132.694C228.312 135.785 225.768 139.626 223.667 144.217C221.613 148.76 220.586 152.999 220.586 156.934C220.633 159.557 221.38 161.664 222.827 163.257C224.274 164.85 226.211 165.646 228.638 165.646Z"/><path fill="url(#paint3_linear)" d="M106.993 125.879L96 113.583L99.5709 110.422L110.564 122.717L106.993 125.879Z"/><path fill="url(#paint4_linear)" d="M282.429 125.879L271.436 113.583L275.007 110.422L286 122.717L282.429 125.879Z"/><path stroke="#fff" stroke-width="2" d="M154.211 169.51C150.197 169.51 147.28 168.761 145.459 167.262C143.685 165.763 142.798 163.234 142.798 159.674C142.798 157.144 143.218 153.959 144.059 150.118L147.42 134.661C147.56 134.005 147.63 133.443 147.63 132.975C147.63 131.617 147.046 130.61 145.879 129.954C144.712 129.251 142.658 128.923 139.718 128.97L140.698 125.106C144.339 125.059 147.116 125.645 149.03 126.862C150.944 128.08 151.901 129.837 151.901 132.132C151.901 132.46 151.854 132.998 151.761 133.748L148.19 150.118C147.443 153.444 147.069 156.254 147.069 158.55C147.069 161.126 147.653 162.953 148.82 164.03C149.987 165.107 151.831 165.646 154.351 165.646C156.078 165.646 157.525 165.271 158.692 164.522C159.859 163.725 161.236 162.273 162.823 160.166L166.044 162.484C164.037 165.154 162.17 167.004 160.443 168.035C158.762 169.018 156.685 169.51 154.211 169.51ZM152.391 117.869C151.037 117.869 150.057 117.658 149.45 117.237C148.843 116.768 148.54 116.042 148.54 115.059C148.54 114.59 148.61 114.075 148.75 113.513C149.03 112.155 149.497 111.241 150.15 110.773C150.804 110.258 151.854 110 153.301 110C154.655 110 155.635 110.211 156.242 110.632C156.849 111.054 157.152 111.756 157.152 112.74C157.152 113.349 157.105 113.841 157.012 114.216C156.685 115.621 156.195 116.581 155.542 117.096C154.888 117.611 153.838 117.869 152.391 117.869Z" mask="url(#path-2-outside-1)"/><path stroke="#fff" stroke-width="2" d="M180.502 183C178.168 183 176.278 182.532 174.831 181.595C173.43 180.658 172.753 179.393 172.8 177.801C172.8 176.068 173.827 174.569 175.881 173.304C177.935 172.039 180.829 171.056 184.563 170.353C188.344 169.651 192.732 169.299 197.726 169.299H198.637C199.524 167.754 200.364 165.084 201.157 161.29C200.41 162.461 198.777 163.421 196.256 164.17C193.782 164.92 191.331 165.295 188.904 165.295C185.31 165.295 182.393 164.194 180.152 161.992C177.958 159.744 176.861 156.793 176.861 153.14C176.861 148.549 178.098 144.006 180.572 139.509C183.046 134.966 186.174 131.265 189.954 128.408C193.782 125.551 197.493 124.122 201.087 124.122C204.448 124.122 207.015 124.614 208.789 125.598C210.61 126.534 211.497 128.174 211.45 130.516C211.45 131.593 210.866 135.083 209.699 140.985C208.533 146.84 207.249 152.695 205.848 158.55C204.448 164.405 203.445 167.988 202.838 169.299C204.051 169.299 205.078 169.252 205.919 169.159C206.759 169.065 207.786 168.831 208.999 168.456L207.949 172.391C206.362 172.859 204.051 173.093 201.017 173.093C199.197 176.091 196.396 178.48 192.615 180.26C188.881 182.087 184.843 183 180.502 183ZM189.044 161.43C192.078 161.43 194.482 161.243 196.256 160.868C198.03 160.447 199.454 159.65 200.527 158.479C201.601 157.261 202.394 155.458 202.908 153.069L203.748 149.205C204.775 144.334 205.615 140.235 206.269 136.91C206.969 133.584 207.342 131.593 207.389 130.937C207.389 129.954 207.179 129.275 206.759 128.9C206.339 128.478 205.732 128.221 204.938 128.127C204.145 128.033 202.814 127.987 200.947 127.987C198.193 127.987 195.229 129.251 192.055 131.781C188.928 134.31 186.29 137.518 184.143 141.406C181.996 145.294 180.922 149.158 180.922 152.999C180.969 155.528 181.716 157.566 183.163 159.112C184.656 160.657 186.617 161.43 189.044 161.43ZM181.482 179.136C184.19 179.136 186.874 178.574 189.534 177.449C192.195 176.372 194.389 174.944 196.116 173.164C190.515 173.351 185.917 173.866 182.323 174.709C178.728 175.552 176.931 176.536 176.931 177.66C176.931 178.082 177.351 178.433 178.192 178.714C179.078 178.995 180.175 179.136 181.482 179.136Z" mask="url(#path-2-outside-1)"/><path stroke="#fff" stroke-width="2" d="M251.254 167.051C250.647 167.8 249.714 168.386 248.453 168.808C247.24 169.276 245.979 169.51 244.672 169.51C243.179 169.51 241.942 169.112 240.962 168.316C240.028 167.519 239.561 166.512 239.561 165.295C239.561 163.421 239.725 162.156 240.051 161.5C238.698 163.936 236.971 165.88 234.87 167.332C232.769 168.784 230.646 169.51 228.498 169.51C224.904 169.51 221.987 168.363 219.746 166.067C217.552 163.772 216.479 160.774 216.525 157.074C216.525 152.296 217.716 147.331 220.096 142.179C222.524 137.027 225.558 132.741 229.199 129.321C232.839 125.855 236.41 124.122 239.911 124.122C243.319 124.122 245.886 124.614 247.613 125.598C249.387 126.581 250.274 128.268 250.274 130.656C250.274 131.265 249.76 134.052 248.734 139.017C247.707 143.936 246.12 151.43 243.972 161.5L243.692 163.608C243.739 164.217 243.972 164.709 244.392 165.084C244.813 165.458 245.373 165.646 246.073 165.646C246.586 165.646 247.146 165.482 247.753 165.154C248.36 164.826 248.897 164.381 249.364 163.819L251.254 167.051ZM228.638 165.646C231.299 165.646 233.89 164.241 236.41 161.43C238.931 158.62 240.915 154.966 242.362 150.47L243.062 147.167C243.389 145.575 243.972 142.671 244.813 138.455C245.699 134.193 246.166 131.687 246.213 130.937C246.166 129.813 245.653 129.04 244.672 128.619C243.739 128.197 242.105 127.987 239.771 127.987C237.111 127.987 234.287 129.556 231.299 132.694C228.312 135.785 225.768 139.626 223.667 144.217C221.613 148.76 220.586 152.999 220.586 156.934C220.633 159.557 221.38 161.664 222.827 163.257C224.274 164.85 226.211 165.646 228.638 165.646Z" mask="url(#path-2-outside-1)"/><path stroke="#fff" stroke-width="2" d="M106.993 125.879L96 113.583L99.5709 110.422L110.564 122.717L106.993 125.879Z" mask="url(#path-2-outside-1)"/><path stroke="#fff" stroke-width="2" d="M282.429 125.879L271.436 113.583L275.007 110.422L286 122.717L282.429 125.879Z" mask="url(#path-2-outside-1)"/><path fill="#000" d="M347.205 151.127H334.005V164.327H329.969V151.127H316.769V147.091H329.969V133.891H334.005V147.091H347.205V151.127Z"/><path fill="#fff" d="M347.205 151.127V152.127H348.205V151.127H347.205ZM334.005 151.127V150.127H333.005V151.127H334.005ZM334.005 164.327V165.327H335.005V164.327H334.005ZM329.969 164.327H328.969V165.327H329.969V164.327ZM329.969 151.127H330.969V150.127H329.969V151.127ZM316.769 151.127H315.769V152.127H316.769V151.127ZM316.769 147.091V146.091H315.769V147.091H316.769ZM329.969 147.091V148.091H330.969V147.091H329.969ZM329.969 133.891V132.891H328.969V133.891H329.969ZM334.005 133.891H335.005V132.891H334.005V133.891ZM334.005 147.091H333.005V148.091H334.005V147.091ZM347.205 147.091H348.205V146.091H347.205V147.091ZM347.205 150.127H334.005V152.127H347.205V150.127ZM333.005 151.127V164.327H335.005V151.127H333.005ZM334.005 163.327H329.969V165.327H334.005V163.327ZM330.969 164.327V151.127H328.969V164.327H330.969ZM329.969 150.127H316.769V152.127H329.969V150.127ZM317.769 151.127V147.091H315.769V151.127H317.769ZM316.769 148.091H329.969V146.091H316.769V148.091ZM330.969 147.091V133.891H328.969V147.091H330.969ZM329.969 134.891H334.005V132.891H329.969V134.891ZM333.005 133.891V147.091H335.005V133.891H333.005ZM334.005 148.091H347.205V146.091H334.005V148.091ZM346.205 147.091V151.127H348.205V147.091H346.205Z"/><defs><linearGradient id="paint0_linear" x1="272.644" x2="272.644" y1="63.868" y2="221.66" gradientUnits="userSpaceOnUse"><stop stop-color="#C229F8"/><stop offset="1" stop-color="#005DB4"/></linearGradient><linearGradient id="paint1_linear" x1="272.644" x2="272.644" y1="63.868" y2="221.66" gradientUnits="userSpaceOnUse"><stop stop-color="#C229F8"/><stop offset="1" stop-color="#005DB4"/></linearGradient><linearGradient id="paint2_linear" x1="272.644" x2="272.644" y1="63.868" y2="221.66" gradientUnits="userSpaceOnUse"><stop stop-color="#C229F8"/><stop offset="1" stop-color="#005DB4"/></linearGradient><linearGradient id="paint3_linear" x1="272.644" x2="272.644" y1="63.868" y2="221.66" gradientUnits="userSpaceOnUse"><stop stop-color="#C229F8"/><stop offset="1" stop-color="#005DB4"/></linearGradient><linearGradient id="paint4_linear" x1="272.644" x2="272.644" y1="63.868" y2="221.66" gradientUnits="userSpaceOnUse"><stop stop-color="#C229F8"/><stop offset="1" stop-color="#005DB4"/></linearGradient></defs></svg>