<svg width="354" height="79" viewBox="0 0 354 79" fill="none" xmlns="http://www.w3.org/2000/svg">
<path d="M318.226 8.75927L317.788 7.96211L317.349 8.75898L283.562 70.1711L283.154 70.9121H284H351.522H352.367L351.96 70.1713L318.226 8.75927ZM290.795 66.3845L314.915 22.445L338.677 66.3845H290.795Z" fill="black" stroke="white"/>
<mask id="path-2-outside-1" maskUnits="userSpaceOnUse" x="0" y="2" width="194" height="75" fill="black">
<rect fill="white" y="2" width="194" height="75"/>
<path d="M60.2113 62.5101C56.1969 62.5101 53.2795 61.7607 51.4591 60.2618C49.6853 58.7629 48.7984 56.2336 48.7984 52.6737C48.7984 50.1444 49.2185 46.9593 50.0587 43.1184L53.4195 27.6612C53.5596 27.0055 53.6296 26.4434 53.6296 25.975C53.6296 24.6166 53.0461 23.6096 51.8792 22.9538C50.7122 22.2512 48.6583 21.9233 45.7176 21.9702L46.6978 18.1059C50.3388 18.059 53.1161 18.6445 55.03 19.8624C56.9438 21.0802 57.9007 22.8367 57.9007 25.1319C57.9007 25.4597 57.854 25.9984 57.7606 26.7478L54.1897 43.1184C53.4429 46.444 53.0695 49.2544 53.0695 51.5496C53.0695 54.1258 53.6529 55.9525 54.8199 57.0298C55.9869 58.1072 57.8307 58.6458 60.3513 58.6458C62.0784 58.6458 63.5254 58.2711 64.6924 57.5217C65.8594 56.7254 67.2364 55.2733 68.8234 53.1655L72.0443 55.4841C70.0371 58.154 68.1699 60.0042 66.4428 61.0347C64.7624 62.0183 62.6852 62.5101 60.2113 62.5101ZM58.3908 10.8691C57.0371 10.8691 56.0569 10.6583 55.4501 10.2368C54.8432 9.76837 54.5398 9.04235 54.5398 8.05871C54.5398 7.59031 54.6098 7.07507 54.7499 6.51299C55.03 5.15464 55.4967 4.24126 56.1502 3.77286C56.8037 3.25762 57.854 3 59.301 3C60.6547 3 61.635 3.21078 62.2418 3.63234C62.8486 4.0539 63.152 4.7565 63.152 5.74013C63.152 6.34905 63.1053 6.84087 63.012 7.21559C62.6852 8.62079 62.1951 9.58101 61.5416 10.0962C60.8881 10.6115 59.8378 10.8691 58.3908 10.8691Z"/>
<path d="M86.5021 76C84.1682 76 82.2777 75.5316 80.8307 74.5948C79.4303 73.658 78.7535 72.3933 78.8001 70.8008C78.8001 69.0677 79.8271 67.5688 81.8809 66.3041C83.9348 65.0395 86.8288 64.0558 90.5631 63.3532C94.3441 62.6506 98.7318 62.2993 103.726 62.2993H104.637C105.524 60.7536 106.364 58.0837 107.157 54.2897C106.41 55.4607 104.777 56.4209 102.256 57.1704C99.7821 57.9198 97.3315 58.2945 94.9042 58.2945C91.31 58.2945 88.3926 57.1938 86.152 54.9923C83.9581 52.744 82.8612 49.7931 82.8612 46.1396C82.8612 41.5492 84.0981 37.0058 86.5721 32.5091C89.0461 27.9657 92.1735 24.2653 95.9545 21.4081C99.7821 18.5509 103.493 17.1222 107.087 17.1222C110.448 17.1222 113.015 17.6141 114.789 18.5977C116.61 19.5345 117.497 21.1739 117.45 23.5159C117.45 24.5932 116.866 28.0828 115.699 33.9846C114.533 39.8396 113.249 45.6946 111.848 51.5496C110.448 57.4046 109.445 60.9878 108.838 62.2993C110.051 62.2993 111.078 62.2525 111.919 62.1588C112.759 62.0651 113.786 61.8309 114.999 61.4562L113.949 65.3908C112.362 65.8592 110.051 66.0934 107.017 66.0934C105.197 69.0911 102.396 71.48 98.6152 73.2599C94.8809 75.0866 90.8432 76 86.5021 76ZM95.0442 54.4302C98.0783 54.4302 100.482 54.2429 102.256 53.8681C104.03 53.4466 105.454 52.6503 106.527 51.4793C107.601 50.2615 108.394 48.4581 108.908 46.0693L109.748 42.205C110.775 37.3337 111.615 33.2352 112.269 29.9095C112.969 26.5839 113.342 24.5932 113.389 23.9374C113.389 22.9538 113.179 22.2746 112.759 21.8999C112.339 21.4783 111.732 21.2207 110.938 21.127C110.145 21.0334 108.814 20.9865 106.947 20.9865C104.193 20.9865 101.229 22.2512 98.055 24.7806C94.9276 27.3099 92.2902 30.5184 90.143 34.4062C87.9958 38.2939 86.9222 42.1582 86.9222 45.999C86.9689 48.5284 87.7157 50.5659 89.1628 52.1116C90.6565 53.6574 92.617 54.4302 95.0442 54.4302ZM87.4823 72.1357C90.1897 72.1357 92.8737 71.5736 95.5344 70.4495C98.195 69.3722 100.389 67.9435 102.116 66.1636C96.5146 66.351 91.9168 66.8662 88.3225 67.7093C84.7283 68.5525 82.9312 69.5361 82.9312 70.6602C82.9312 71.0818 83.3513 71.4331 84.1915 71.7141C85.0784 71.9952 86.1753 72.1357 87.4823 72.1357Z"/>
<path d="M157.254 60.051C156.647 60.8005 155.714 61.3859 154.453 61.8075C153.24 62.2759 151.979 62.5101 150.672 62.5101C149.179 62.5101 147.942 62.112 146.962 61.3157C146.028 60.5194 145.561 59.5123 145.561 58.2945C145.561 56.4209 145.725 55.1562 146.051 54.5005C144.698 56.9362 142.971 58.88 140.87 60.3321C138.769 61.7841 136.646 62.5101 134.498 62.5101C130.904 62.5101 127.987 61.3625 125.746 59.0674C123.552 56.7722 122.479 53.7745 122.525 50.0741C122.525 45.2964 123.716 40.3314 126.096 35.179C128.524 30.0266 131.558 25.7408 135.199 22.3215C138.839 18.8553 142.41 17.1222 145.911 17.1222C149.319 17.1222 151.886 17.6141 153.613 18.5977C155.387 19.5813 156.274 21.2676 156.274 23.6564C156.274 24.2653 155.76 27.0523 154.734 32.0173C153.707 36.9355 152.12 44.4299 149.972 54.5005L149.692 56.6083C149.739 57.2172 149.972 57.709 150.392 58.0837C150.813 58.4585 151.373 58.6458 152.073 58.6458C152.586 58.6458 153.146 58.4819 153.753 58.154C154.36 57.8261 154.897 57.3811 155.364 56.8191L157.254 60.051ZM134.638 58.6458C137.299 58.6458 139.89 57.2406 142.41 54.4302C144.931 51.6198 146.915 47.9663 148.362 43.4697L149.062 40.1675C149.389 38.5749 149.972 35.6708 150.813 31.4552C151.699 27.1928 152.166 24.6869 152.213 23.9374C152.166 22.8133 151.653 22.0404 150.672 21.6189C149.739 21.1973 148.105 20.9865 145.771 20.9865C143.111 20.9865 140.287 22.5557 137.299 25.6939C134.312 28.7854 131.768 32.6262 129.667 37.2166C127.613 41.76 126.586 45.999 126.586 49.9336C126.633 52.5566 127.38 54.6644 128.827 56.257C130.274 57.8495 132.211 58.6458 134.638 58.6458Z"/>
<path d="M12.9928 18.8787L2 6.58325L5.5709 3.42156L16.5637 15.717L12.9928 18.8787Z"/>
<path d="M188.429 18.8787L177.436 6.58325L181.007 3.42156L192 15.717L188.429 18.8787Z"/>
</mask>
<path d="M60.2113 62.5101C56.1969 62.5101 53.2795 61.7607 51.4591 60.2618C49.6853 58.7629 48.7984 56.2336 48.7984 52.6737C48.7984 50.1444 49.2185 46.9593 50.0587 43.1184L53.4195 27.6612C53.5596 27.0055 53.6296 26.4434 53.6296 25.975C53.6296 24.6166 53.0461 23.6096 51.8792 22.9538C50.7122 22.2512 48.6583 21.9233 45.7176 21.9702L46.6978 18.1059C50.3388 18.059 53.1161 18.6445 55.03 19.8624C56.9438 21.0802 57.9007 22.8367 57.9007 25.1319C57.9007 25.4597 57.854 25.9984 57.7606 26.7478L54.1897 43.1184C53.4429 46.444 53.0695 49.2544 53.0695 51.5496C53.0695 54.1258 53.6529 55.9525 54.8199 57.0298C55.9869 58.1072 57.8307 58.6458 60.3513 58.6458C62.0784 58.6458 63.5254 58.2711 64.6924 57.5217C65.8594 56.7254 67.2364 55.2733 68.8234 53.1655L72.0443 55.4841C70.0371 58.154 68.1699 60.0042 66.4428 61.0347C64.7624 62.0183 62.6852 62.5101 60.2113 62.5101ZM58.3908 10.8691C57.0371 10.8691 56.0569 10.6583 55.4501 10.2368C54.8432 9.76837 54.5398 9.04235 54.5398 8.05871C54.5398 7.59031 54.6098 7.07507 54.7499 6.51299C55.03 5.15464 55.4967 4.24126 56.1502 3.77286C56.8037 3.25762 57.854 3 59.301 3C60.6547 3 61.635 3.21078 62.2418 3.63234C62.8486 4.0539 63.152 4.7565 63.152 5.74013C63.152 6.34905 63.1053 6.84087 63.012 7.21559C62.6852 8.62079 62.1951 9.58101 61.5416 10.0962C60.8881 10.6115 59.8378 10.8691 58.3908 10.8691Z" fill="url(#paint0_linear)"/>
<path d="M86.5021 76C84.1682 76 82.2777 75.5316 80.8307 74.5948C79.4303 73.658 78.7535 72.3933 78.8001 70.8008C78.8001 69.0677 79.8271 67.5688 81.8809 66.3041C83.9348 65.0395 86.8288 64.0558 90.5631 63.3532C94.3441 62.6506 98.7318 62.2993 103.726 62.2993H104.637C105.524 60.7536 106.364 58.0837 107.157 54.2897C106.41 55.4607 104.777 56.4209 102.256 57.1704C99.7821 57.9198 97.3315 58.2945 94.9042 58.2945C91.31 58.2945 88.3926 57.1938 86.152 54.9923C83.9581 52.744 82.8612 49.7931 82.8612 46.1396C82.8612 41.5492 84.0981 37.0058 86.5721 32.5091C89.0461 27.9657 92.1735 24.2653 95.9545 21.4081C99.7821 18.5509 103.493 17.1222 107.087 17.1222C110.448 17.1222 113.015 17.6141 114.789 18.5977C116.61 19.5345 117.497 21.1739 117.45 23.5159C117.45 24.5932 116.866 28.0828 115.699 33.9846C114.533 39.8396 113.249 45.6946 111.848 51.5496C110.448 57.4046 109.445 60.9878 108.838 62.2993C110.051 62.2993 111.078 62.2525 111.919 62.1588C112.759 62.0651 113.786 61.8309 114.999 61.4562L113.949 65.3908C112.362 65.8592 110.051 66.0934 107.017 66.0934C105.197 69.0911 102.396 71.48 98.6152 73.2599C94.8809 75.0866 90.8432 76 86.5021 76ZM95.0442 54.4302C98.0783 54.4302 100.482 54.2429 102.256 53.8681C104.03 53.4466 105.454 52.6503 106.527 51.4793C107.601 50.2615 108.394 48.4581 108.908 46.0693L109.748 42.205C110.775 37.3337 111.615 33.2352 112.269 29.9095C112.969 26.5839 113.342 24.5932 113.389 23.9374C113.389 22.9538 113.179 22.2746 112.759 21.8999C112.339 21.4783 111.732 21.2207 110.938 21.127C110.145 21.0334 108.814 20.9865 106.947 20.9865C104.193 20.9865 101.229 22.2512 98.055 24.7806C94.9276 27.3099 92.2902 30.5184 90.143 34.4062C87.9958 38.2939 86.9222 42.1582 86.9222 45.999C86.9689 48.5284 87.7157 50.5659 89.1628 52.1116C90.6565 53.6574 92.617 54.4302 95.0442 54.4302ZM87.4823 72.1357C90.1897 72.1357 92.8737 71.5736 95.5344 70.4495C98.195 69.3722 100.389 67.9435 102.116 66.1636C96.5146 66.351 91.9168 66.8662 88.3225 67.7093C84.7283 68.5525 82.9312 69.5361 82.9312 70.6602C82.9312 71.0818 83.3513 71.4331 84.1915 71.7141C85.0784 71.9952 86.1753 72.1357 87.4823 72.1357Z" fill="url(#paint1_linear)"/>
<path d="M157.254 60.051C156.647 60.8005 155.714 61.3859 154.453 61.8075C153.24 62.2759 151.979 62.5101 150.672 62.5101C149.179 62.5101 147.942 62.112 146.962 61.3157C146.028 60.5194 145.561 59.5123 145.561 58.2945C145.561 56.4209 145.725 55.1562 146.051 54.5005C144.698 56.9362 142.971 58.88 140.87 60.3321C138.769 61.7841 136.646 62.5101 134.498 62.5101C130.904 62.5101 127.987 61.3625 125.746 59.0674C123.552 56.7722 122.479 53.7745 122.525 50.0741C122.525 45.2964 123.716 40.3314 126.096 35.179C128.524 30.0266 131.558 25.7408 135.199 22.3215C138.839 18.8553 142.41 17.1222 145.911 17.1222C149.319 17.1222 151.886 17.6141 153.613 18.5977C155.387 19.5813 156.274 21.2676 156.274 23.6564C156.274 24.2653 155.76 27.0523 154.734 32.0173C153.707 36.9355 152.12 44.4299 149.972 54.5005L149.692 56.6083C149.739 57.2172 149.972 57.709 150.392 58.0837C150.813 58.4585 151.373 58.6458 152.073 58.6458C152.586 58.6458 153.146 58.4819 153.753 58.154C154.36 57.8261 154.897 57.3811 155.364 56.8191L157.254 60.051ZM134.638 58.6458C137.299 58.6458 139.89 57.2406 142.41 54.4302C144.931 51.6198 146.915 47.9663 148.362 43.4697L149.062 40.1675C149.389 38.5749 149.972 35.6708 150.813 31.4552C151.699 27.1928 152.166 24.6869 152.213 23.9374C152.166 22.8133 151.653 22.0404 150.672 21.6189C149.739 21.1973 148.105 20.9865 145.771 20.9865C143.111 20.9865 140.287 22.5557 137.299 25.6939C134.312 28.7854 131.768 32.6262 129.667 37.2166C127.613 41.76 126.586 45.999 126.586 49.9336C126.633 52.5566 127.38 54.6644 128.827 56.257C130.274 57.8495 132.211 58.6458 134.638 58.6458Z" fill="url(#paint2_linear)"/>
<path d="M12.9928 18.8787L2 6.58325L5.5709 3.42156L16.5637 15.717L12.9928 18.8787Z" fill="url(#paint3_linear)"/>
<path d="M188.429 18.8787L177.436 6.58325L181.007 3.42156L192 15.717L188.429 18.8787Z" fill="url(#paint4_linear)"/>
<path d="M60.2113 62.5101C56.1969 62.5101 53.2795 61.7607 51.4591 60.2618C49.6853 58.7629 48.7984 56.2336 48.7984 52.6737C48.7984 50.1444 49.2185 46.9593 50.0587 43.1184L53.4195 27.6612C53.5596 27.0055 53.6296 26.4434 53.6296 25.975C53.6296 24.6166 53.0461 23.6096 51.8792 22.9538C50.7122 22.2512 48.6583 21.9233 45.7176 21.9702L46.6978 18.1059C50.3388 18.059 53.1161 18.6445 55.03 19.8624C56.9438 21.0802 57.9007 22.8367 57.9007 25.1319C57.9007 25.4597 57.854 25.9984 57.7606 26.7478L54.1897 43.1184C53.4429 46.444 53.0695 49.2544 53.0695 51.5496C53.0695 54.1258 53.6529 55.9525 54.8199 57.0298C55.9869 58.1072 57.8307 58.6458 60.3513 58.6458C62.0784 58.6458 63.5254 58.2711 64.6924 57.5217C65.8594 56.7254 67.2364 55.2733 68.8234 53.1655L72.0443 55.4841C70.0371 58.154 68.1699 60.0042 66.4428 61.0347C64.7624 62.0183 62.6852 62.5101 60.2113 62.5101ZM58.3908 10.8691C57.0371 10.8691 56.0569 10.6583 55.4501 10.2368C54.8432 9.76837 54.5398 9.04235 54.5398 8.05871C54.5398 7.59031 54.6098 7.07507 54.7499 6.51299C55.03 5.15464 55.4967 4.24126 56.1502 3.77286C56.8037 3.25762 57.854 3 59.301 3C60.6547 3 61.635 3.21078 62.2418 3.63234C62.8486 4.0539 63.152 4.7565 63.152 5.74013C63.152 6.34905 63.1053 6.84087 63.012 7.21559C62.6852 8.62079 62.1951 9.58101 61.5416 10.0962C60.8881 10.6115 59.8378 10.8691 58.3908 10.8691Z" stroke="white" stroke-width="2" mask="url(#path-2-outside-1)"/>
<path d="M86.5021 76C84.1682 76 82.2777 75.5316 80.8307 74.5948C79.4303 73.658 78.7535 72.3933 78.8001 70.8008C78.8001 69.0677 79.8271 67.5688 81.8809 66.3041C83.9348 65.0395 86.8288 64.0558 90.5631 63.3532C94.3441 62.6506 98.7318 62.2993 103.726 62.2993H104.637C105.524 60.7536 106.364 58.0837 107.157 54.2897C106.41 55.4607 104.777 56.4209 102.256 57.1704C99.7821 57.9198 97.3315 58.2945 94.9042 58.2945C91.31 58.2945 88.3926 57.1938 86.152 54.9923C83.9581 52.744 82.8612 49.7931 82.8612 46.1396C82.8612 41.5492 84.0981 37.0058 86.5721 32.5091C89.0461 27.9657 92.1735 24.2653 95.9545 21.4081C99.7821 18.5509 103.493 17.1222 107.087 17.1222C110.448 17.1222 113.015 17.6141 114.789 18.5977C116.61 19.5345 117.497 21.1739 117.45 23.5159C117.45 24.5932 116.866 28.0828 115.699 33.9846C114.533 39.8396 113.249 45.6946 111.848 51.5496C110.448 57.4046 109.445 60.9878 108.838 62.2993C110.051 62.2993 111.078 62.2525 111.919 62.1588C112.759 62.0651 113.786 61.8309 114.999 61.4562L113.949 65.3908C112.362 65.8592 110.051 66.0934 107.017 66.0934C105.197 69.0911 102.396 71.48 98.6152 73.2599C94.8809 75.0866 90.8432 76 86.5021 76ZM95.0442 54.4302C98.0783 54.4302 100.482 54.2429 102.256 53.8681C104.03 53.4466 105.454 52.6503 106.527 51.4793C107.601 50.2615 108.394 48.4581 108.908 46.0693L109.748 42.205C110.775 37.3337 111.615 33.2352 112.269 29.9095C112.969 26.5839 113.342 24.5932 113.389 23.9374C113.389 22.9538 113.179 22.2746 112.759 21.8999C112.339 21.4783 111.732 21.2207 110.938 21.127C110.145 21.0334 108.814 20.9865 106.947 20.9865C104.193 20.9865 101.229 22.2512 98.055 24.7806C94.9276 27.3099 92.2902 30.5184 90.143 34.4062C87.9958 38.2939 86.9222 42.1582 86.9222 45.999C86.9689 48.5284 87.7157 50.5659 89.1628 52.1116C90.6565 53.6574 92.617 54.4302 95.0442 54.4302ZM87.4823 72.1357C90.1897 72.1357 92.8737 71.5736 95.5344 70.4495C98.195 69.3722 100.389 67.9435 102.116 66.1636C96.5146 66.351 91.9168 66.8662 88.3225 67.7093C84.7283 68.5525 82.9312 69.5361 82.9312 70.6602C82.9312 71.0818 83.3513 71.4331 84.1915 71.7141C85.0784 71.9952 86.1753 72.1357 87.4823 72.1357Z" stroke="white" stroke-width="2" mask="url(#path-2-outside-1)"/>
<path d="M157.254 60.051C156.647 60.8005 155.714 61.3859 154.453 61.8075C153.24 62.2759 151.979 62.5101 150.672 62.5101C149.179 62.5101 147.942 62.112 146.962 61.3157C146.028 60.5194 145.561 59.5123 145.561 58.2945C145.561 56.4209 145.725 55.1562 146.051 54.5005C144.698 56.9362 142.971 58.88 140.87 60.3321C138.769 61.7841 136.646 62.5101 134.498 62.5101C130.904 62.5101 127.987 61.3625 125.746 59.0674C123.552 56.7722 122.479 53.7745 122.525 50.0741C122.525 45.2964 123.716 40.3314 126.096 35.179C128.524 30.0266 131.558 25.7408 135.199 22.3215C138.839 18.8553 142.41 17.1222 145.911 17.1222C149.319 17.1222 151.886 17.6141 153.613 18.5977C155.387 19.5813 156.274 21.2676 156.274 23.6564C156.274 24.2653 155.76 27.0523 154.734 32.0173C153.707 36.9355 152.12 44.4299 149.972 54.5005L149.692 56.6083C149.739 57.2172 149.972 57.709 150.392 58.0837C150.813 58.4585 151.373 58.6458 152.073 58.6458C152.586 58.6458 153.146 58.4819 153.753 58.154C154.36 57.8261 154.897 57.3811 155.364 56.8191L157.254 60.051ZM134.638 58.6458C137.299 58.6458 139.89 57.2406 142.41 54.4302C144.931 51.6198 146.915 47.9663 148.362 43.4697L149.062 40.1675C149.389 38.5749 149.972 35.6708 150.813 31.4552C151.699 27.1928 152.166 24.6869 152.213 23.9374C152.166 22.8133 151.653 22.0404 150.672 21.6189C149.739 21.1973 148.105 20.9865 145.771 20.9865C143.111 20.9865 140.287 22.5557 137.299 25.6939C134.312 28.7854 131.768 32.6262 129.667 37.2166C127.613 41.76 126.586 45.999 126.586 49.9336C126.633 52.5566 127.38 54.6644 128.827 56.257C130.274 57.8495 132.211 58.6458 134.638 58.6458Z" stroke="white" stroke-width="2" mask="url(#path-2-outside-1)"/>
<path d="M12.9928 18.8787L2 6.58325L5.5709 3.42156L16.5637 15.717L12.9928 18.8787Z" stroke="white" stroke-width="2" mask="url(#path-2-outside-1)"/>
<path d="M188.429 18.8787L177.436 6.58325L181.007 3.42156L192 15.717L188.429 18.8787Z" stroke="white" stroke-width="2" mask="url(#path-2-outside-1)"/>
<path d="M253.205 44.1273H240.005V57.3273H235.969V44.1273H222.769V40.0909H235.969V26.8909H240.005V40.0909H253.205V44.1273Z" fill="black"/>
<path d="M253.205 44.1273V45.1273H254.205V44.1273H253.205ZM240.005 44.1273V43.1273H239.005V44.1273H240.005ZM240.005 57.3273V58.3273H241.005V57.3273H240.005ZM235.969 57.3273H234.969V58.3273H235.969V57.3273ZM235.969 44.1273H236.969V43.1273H235.969V44.1273ZM222.769 44.1273H221.769V45.1273H222.769V44.1273ZM222.769 40.0909V39.0909H221.769V40.0909H222.769ZM235.969 40.0909V41.0909H236.969V40.0909H235.969ZM235.969 26.8909V25.8909H234.969V26.8909H235.969ZM240.005 26.8909H241.005V25.8909H240.005V26.8909ZM240.005 40.0909H239.005V41.0909H240.005V40.0909ZM253.205 40.0909H254.205V39.0909H253.205V40.0909ZM253.205 43.1273H240.005V45.1273H253.205V43.1273ZM239.005 44.1273V57.3273H241.005V44.1273H239.005ZM240.005 56.3273H235.969V58.3273H240.005V56.3273ZM236.969 57.3273V44.1273H234.969V57.3273H236.969ZM235.969 43.1273H222.769V45.1273H235.969V43.1273ZM223.769 44.1273V40.0909H221.769V44.1273H223.769ZM222.769 41.0909H235.969V39.0909H222.769V41.0909ZM236.969 40.0909V26.8909H234.969V40.0909H236.969ZM235.969 27.8909H240.005V25.8909H235.969V27.8909ZM239.005 26.8909V40.0909H241.005V26.8909H239.005ZM240.005 41.0909H253.205V39.0909H240.005V41.0909ZM252.205 40.0909V44.1273H254.205V40.0909H252.205Z" fill="white"/>
<defs>
<linearGradient id="paint0_linear" x1="178.644" y1="-43.1315" x2="178.644" y2="114.66" gradientUnits="userSpaceOnUse">
<stop stop-color="#C229F8"/>
<stop offset="1" stop-color="#005DB4"/>
</linearGradient>
<linearGradient id="paint1_linear" x1="178.644" y1="-43.1315" x2="178.644" y2="114.66" gradientUnits="userSpaceOnUse">
<stop stop-color="#C229F8"/>
<stop offset="1" stop-color="#005DB4"/>
</linearGradient>
<linearGradient id="paint2_linear" x1="178.644" y1="-43.1315" x2="178.644" y2="114.66" gradientUnits="userSpaceOnUse">
<stop stop-color="#C229F8"/>
<stop offset="1" stop-color="#005DB4"/>
</linearGradient>
<linearGradient id="paint3_linear" x1="178.644" y1="-43.1315" x2="178.644" y2="114.66" gradientUnits="userSpaceOnUse">
<stop stop-color="#C229F8"/>
<stop offset="1" stop-color="#005DB4"/>
</linearGradient>
<linearGradient id="paint4_linear" x1="178.644" y1="-43.1315" x2="178.644" y2="114.66" gradientUnits="userSpaceOnUse">
<stop stop-color="#C229F8"/>
<stop offset="1" stop-color="#005DB4"/>
</linearGradient>
</defs>
</svg>
