<svg width="346" height="228" viewBox="0 0 346 228" fill="none" xmlns="http://www.w3.org/2000/svg">
<path d="M123.54 147.222C118.885 147.222 115.511 146.349 113.416 144.604C111.38 142.8 110.362 139.745 110.362 135.44C110.362 132.065 110.914 127.964 112.02 123.135L116.558 102.713C116.732 101.84 116.82 101.025 116.82 100.269C116.82 98.4655 116.151 97.0691 114.812 96.08C113.474 95.0327 111.031 94.48 107.482 94.4218L107.743 92.0655C111.7 92.1236 114.667 92.8509 116.645 94.2473C118.623 95.5855 119.612 97.5055 119.612 100.007C119.612 100.705 119.583 101.229 119.525 101.578L114.812 123.135C113.765 127.847 113.242 131.687 113.242 134.655C113.242 138.262 114.027 140.851 115.598 142.422C117.227 143.993 119.758 144.778 123.191 144.778C125.46 144.778 127.38 144.313 128.951 143.382C130.58 142.451 132.296 140.822 134.1 138.495L136.369 140.153C134.158 142.829 132.122 144.691 130.26 145.738C128.456 146.727 126.216 147.222 123.54 147.222ZM121.271 81.8545C119.991 81.8545 119.089 81.7091 118.565 81.4182C118.042 81.1273 117.78 80.5745 117.78 79.76C117.78 79.2364 117.867 78.6255 118.042 77.9273C118.274 76.5309 118.652 75.6291 119.176 75.2218C119.758 74.7564 120.834 74.5236 122.405 74.5236C123.685 74.5236 124.587 74.6691 125.111 74.96C125.692 75.2509 125.983 75.8036 125.983 76.6182C125.983 77.0836 125.896 77.6364 125.722 78.2764C125.431 79.7891 124.994 80.7782 124.412 81.2436C123.889 81.6509 122.842 81.8545 121.271 81.8545ZM156.833 163.978C154.273 163.978 152.179 163.455 150.55 162.407C148.979 161.418 148.164 160.109 148.106 158.48C148.106 156.676 149.328 155.076 151.771 153.68C154.273 152.342 157.735 151.265 162.157 150.451C166.637 149.695 171.757 149.316 177.517 149.316H179.611C180.659 147.745 181.561 145.68 182.317 143.12C183.073 140.502 183.597 138.029 183.888 135.702C183.713 136.807 182.724 137.855 180.921 138.844C179.175 139.833 177.022 140.618 174.462 141.2C171.902 141.724 169.517 141.985 167.306 141.985C163.117 141.985 159.742 140.589 157.182 137.796C154.622 135.004 153.342 131.338 153.342 126.8C153.401 121.156 154.971 115.542 158.055 109.956C161.139 104.371 164.95 99.8036 169.488 96.2545C174.084 92.6473 178.419 90.8436 182.491 90.8436C186.215 90.8436 189.124 91.3382 191.219 92.3273C193.371 93.2582 194.477 95.0909 194.535 97.8255C194.535 99.28 193.662 104.196 191.917 112.575C190.171 120.895 188.339 128.953 186.419 136.749C184.557 144.545 183.364 148.705 182.841 149.229C184.47 149.345 185.662 149.404 186.419 149.404C187.815 149.404 189.008 149.258 189.997 148.967L189.91 151.062C188.397 151.469 186.535 151.673 184.324 151.673L181.619 151.585C179.582 155.309 176.295 158.305 171.757 160.575C167.219 162.844 162.244 163.978 156.833 163.978ZM166.957 139.542C170.739 139.542 173.822 139.251 176.208 138.669C178.593 138.029 180.571 136.807 182.142 135.004C183.771 133.2 184.993 130.524 185.808 126.975L187.117 120.953C188.455 115.018 189.561 109.956 190.433 105.767C191.306 101.52 191.742 98.9309 191.742 98C191.742 96.4873 191.422 95.4109 190.782 94.7709C190.142 94.0727 189.27 93.6655 188.164 93.5491C187.059 93.3745 185.284 93.2873 182.841 93.2873C179.233 93.2873 175.335 95.0327 171.146 98.5236C166.957 101.956 163.408 106.32 160.499 111.615C157.648 116.909 156.222 122.175 156.222 127.411C156.222 131.018 157.211 133.956 159.19 136.225C161.168 138.436 163.757 139.542 166.957 139.542ZM157.531 161.535C161.662 161.535 165.735 160.604 169.75 158.742C173.764 156.938 176.906 154.553 179.175 151.585C170.331 151.76 163.379 152.487 158.317 153.767C153.313 155.047 150.841 156.735 150.899 158.829C150.899 159.644 151.481 160.284 152.644 160.749C153.866 161.273 155.495 161.535 157.531 161.535ZM243.363 145.476C241.501 146.64 239.319 147.222 236.818 147.222C235.247 147.222 233.967 146.815 232.978 146C231.989 145.185 231.494 144.08 231.494 142.684C231.494 139.6 231.901 136.691 232.716 133.956C231.087 137.913 228.789 141.113 225.821 143.556C222.854 146 219.799 147.222 216.658 147.222C212.469 147.222 209.094 145.913 206.534 143.295C203.974 140.618 202.636 137.098 202.519 132.735C202.519 127.149 204.003 121.069 206.97 114.495C209.996 107.862 213.719 102.276 218.141 97.7382C222.563 93.1418 226.81 90.8436 230.883 90.8436C234.607 90.8436 237.545 91.3382 239.698 92.3273C241.85 93.2582 242.927 95.0909 242.927 97.8255C242.869 98.64 240.105 112.225 234.636 138.582C234.229 139.92 234.083 140.793 234.199 141.2C234.141 142.305 234.461 143.178 235.159 143.818C235.916 144.458 236.876 144.778 238.039 144.778C239.494 144.778 240.774 144.429 241.879 143.731L243.363 145.476ZM216.309 144.778C220.032 144.778 223.581 142.887 226.956 139.105C230.389 135.265 233.065 130.116 234.985 123.658C238.418 108.356 240.134 99.7164 240.134 97.7382C240.134 96.0509 239.436 94.8873 238.039 94.2473C236.643 93.6073 234.374 93.2873 231.232 93.2873C227.625 93.2873 223.785 95.4982 219.712 99.92C215.698 104.284 212.323 109.607 209.589 115.891C206.854 122.175 205.487 127.905 205.487 133.084C205.429 136.575 206.389 139.396 208.367 141.549C210.345 143.702 212.992 144.778 216.309 144.778Z" fill="url(#paint0_linear)"/>
<path d="M113.416 144.604L112.753 145.352L112.764 145.362L112.776 145.372L113.416 144.604ZM112.02 123.135L112.995 123.358L112.996 123.351L112.02 123.135ZM116.558 102.713L117.534 102.93L117.536 102.919L117.538 102.909L116.558 102.713ZM114.812 96.08L114.196 96.8675L114.207 96.876L114.218 96.8842L114.812 96.08ZM107.482 94.4218L106.488 94.3114L106.366 95.4037L107.465 95.4217L107.482 94.4218ZM107.743 92.0655L107.758 91.0656L106.85 91.0522L106.749 91.955L107.743 92.0655ZM116.645 94.2473L116.068 95.0642L116.077 95.07L116.085 95.0756L116.645 94.2473ZM119.525 101.578L120.502 101.792L120.507 101.767L120.512 101.743L119.525 101.578ZM114.812 123.135L115.789 123.351L115.789 123.348L114.812 123.135ZM115.598 142.422L114.891 143.129L114.897 143.135L114.904 143.142L115.598 142.422ZM128.951 143.382L128.454 142.514L128.448 142.517L128.441 142.522L128.951 143.382ZM134.1 138.495L134.69 137.687L133.905 137.114L133.309 137.882L134.1 138.495ZM136.369 140.153L137.14 140.79L137.816 139.971L136.959 139.345L136.369 140.153ZM130.26 145.738L130.741 146.615L130.75 146.61L130.26 145.738ZM118.042 77.9273L119.012 78.1698L119.021 78.1311L119.028 78.0917L118.042 77.9273ZM119.176 75.2218L119.79 76.0112L119.801 76.0027L119.176 75.2218ZM125.111 74.96L124.625 75.8342L124.644 75.8447L124.663 75.8544L125.111 74.96ZM125.722 78.2764L124.757 78.0132L124.747 78.0501L124.74 78.0875L125.722 78.2764ZM124.412 81.2436L125.026 82.0331L125.037 82.0245L124.412 81.2436ZM123.54 146.222C118.968 146.222 115.882 145.357 114.056 143.835L112.776 145.372C115.139 147.341 118.802 148.222 123.54 148.222V146.222ZM114.079 143.855C112.355 142.328 111.362 139.624 111.362 135.44H109.362C109.362 139.867 110.404 143.272 112.753 145.352L114.079 143.855ZM111.362 135.44C111.362 132.167 111.899 128.144 112.995 123.358L111.045 122.911C109.93 127.783 109.362 131.964 109.362 135.44H111.362ZM112.996 123.351L117.534 102.93L115.582 102.496L111.044 122.918L112.996 123.351ZM117.538 102.909C117.724 101.983 117.82 101.102 117.82 100.269H115.82C115.82 100.949 115.741 101.697 115.577 102.517L117.538 102.909ZM117.82 100.269C117.82 98.1792 117.024 96.4711 115.407 95.2758L114.218 96.8842C115.277 97.6671 115.82 98.7517 115.82 100.269H117.82ZM115.429 95.2925C113.812 94.027 111.071 93.4805 107.498 93.422L107.465 95.4217C110.991 95.4795 113.137 96.0384 114.196 96.8675L115.429 95.2925ZM108.475 94.5322L108.737 92.1759L106.749 91.955L106.488 94.3114L108.475 94.5322ZM107.729 93.0653C111.6 93.1223 114.329 93.8367 116.068 95.0642L117.222 93.4303C115.005 91.8652 111.8 91.125 107.758 91.0656L107.729 93.0653ZM116.085 95.0756C117.773 96.2174 118.612 97.8186 118.612 100.007H120.612C120.612 97.1923 119.474 94.9535 117.205 93.419L116.085 95.0756ZM118.612 100.007C118.612 100.693 118.583 101.149 118.539 101.414L120.512 101.743C120.584 101.309 120.612 100.718 120.612 100.007H118.612ZM118.548 101.365L113.836 122.921L115.789 123.348L120.502 101.792L118.548 101.365ZM113.836 122.918C112.782 127.663 112.242 131.583 112.242 134.655H114.242C114.242 131.791 114.749 128.031 115.789 123.351L113.836 122.918ZM112.242 134.655C112.242 138.369 113.044 141.282 114.891 143.129L116.305 141.715C115.01 140.419 114.242 138.155 114.242 134.655H112.242ZM114.904 143.142C116.796 144.966 119.63 145.778 123.191 145.778V143.778C119.886 143.778 117.658 143.019 116.292 141.702L114.904 143.142ZM123.191 145.778C125.596 145.778 127.702 145.284 129.46 144.242L128.441 142.522C127.058 143.341 125.324 143.778 123.191 143.778V145.778ZM129.447 144.25C131.236 143.228 133.047 141.486 134.89 139.107L133.309 137.882C131.545 140.158 129.923 141.674 128.454 142.514L129.447 144.25ZM133.51 139.302L135.779 140.96L136.959 139.345L134.69 137.687L133.51 139.302ZM135.598 139.516C133.422 142.149 131.478 143.906 129.769 144.867L130.75 146.61C132.765 145.476 134.893 143.509 137.14 140.79L135.598 139.516ZM129.779 144.861C128.16 145.749 126.097 146.222 123.54 146.222V148.222C126.335 148.222 128.752 147.706 130.741 146.615L129.779 144.861ZM121.271 80.8545C120.008 80.8545 119.334 80.7012 119.051 80.544L118.08 82.2923C118.844 82.717 119.973 82.8545 121.271 82.8545V80.8545ZM119.051 80.544C118.956 80.4915 118.78 80.3601 118.78 79.76H116.78C116.78 80.789 117.127 81.763 118.08 82.2923L119.051 80.544ZM118.78 79.76C118.78 79.3421 118.85 78.816 119.012 78.1698L117.071 77.6847C116.884 78.435 116.78 79.1306 116.78 79.76H118.78ZM119.028 78.0917C119.137 77.4391 119.273 76.9459 119.422 76.5904C119.574 76.228 119.713 76.0709 119.79 76.0112L118.562 74.4325C118.115 74.78 117.804 75.2774 117.578 75.8169C117.348 76.3631 117.179 77.0191 117.055 77.7629L119.028 78.0917ZM119.801 76.0027C120.093 75.7692 120.855 75.5236 122.405 75.5236V73.5236C120.814 73.5236 119.423 73.7435 118.551 74.4409L119.801 76.0027ZM122.405 75.5236C123.667 75.5236 124.342 75.677 124.625 75.8342L125.596 74.0858C124.832 73.6612 123.703 73.5236 122.405 73.5236V75.5236ZM124.663 75.8544C124.815 75.9303 124.983 76.0681 124.983 76.6182H126.983C126.983 75.5391 126.57 74.5716 125.558 74.0656L124.663 75.8544ZM124.983 76.6182C124.983 76.9659 124.917 77.4259 124.757 78.0132L126.686 78.5395C126.875 77.8469 126.983 77.2013 126.983 76.6182H124.983ZM124.74 78.0875C124.453 79.5749 124.067 80.2392 123.788 80.4628L125.037 82.0245C125.921 81.3171 126.408 80.0033 126.704 78.4652L124.74 78.0875ZM123.799 80.4543C123.714 80.5201 123.496 80.6321 123.043 80.7202C122.605 80.8055 122.019 80.8545 121.271 80.8545V82.8545C122.093 82.8545 122.817 82.8017 123.425 82.6834C124.019 82.5679 124.587 82.3744 125.026 82.033L123.799 80.4543ZM150.55 162.407L151.09 161.566L151.082 161.561L150.55 162.407ZM148.106 158.48H147.106V158.498L147.107 158.516L148.106 158.48ZM151.771 153.68L151.3 152.798L151.287 152.805L151.275 152.812L151.771 153.68ZM162.157 150.451L161.99 149.465L161.983 149.466L161.976 149.467L162.157 150.451ZM179.611 149.316V150.316H180.147L180.443 149.871L179.611 149.316ZM182.317 143.12L183.276 143.403L183.278 143.398L182.317 143.12ZM183.888 135.702L184.88 135.826L182.9 135.546L183.888 135.702ZM180.921 138.844L180.44 137.967L180.427 137.974L180.921 138.844ZM174.462 141.2L174.663 142.18L174.673 142.178L174.684 142.175L174.462 141.2ZM157.182 137.796L156.445 138.472L156.445 138.472L157.182 137.796ZM153.342 126.8L152.342 126.79V126.8H153.342ZM158.055 109.956L157.18 109.473L157.18 109.473L158.055 109.956ZM169.488 96.2545L170.104 97.0423L170.105 97.0412L169.488 96.2545ZM191.219 92.3273L190.792 93.2315L190.807 93.2386L190.822 93.2451L191.219 92.3273ZM194.535 97.8255H195.535V97.8148L195.535 97.8042L194.535 97.8255ZM191.917 112.575L192.896 112.78L192.896 112.779L191.917 112.575ZM186.419 136.749L185.448 136.51L185.446 136.517L186.419 136.749ZM182.841 149.229L182.133 148.522L180.585 150.071L182.769 150.227L182.841 149.229ZM189.997 148.967L190.996 149.009L191.054 147.614L189.715 148.008L189.997 148.967ZM189.91 151.062L190.17 152.027L190.878 151.837L190.909 151.103L189.91 151.062ZM184.324 151.673L184.292 152.672L184.308 152.673H184.324V151.673ZM181.619 151.585L181.651 150.586L181.036 150.566L180.741 151.106L181.619 151.585ZM171.757 160.575L171.31 159.68L171.31 159.68L171.757 160.575ZM176.208 138.669L176.445 139.641L176.456 139.638L176.467 139.635L176.208 138.669ZM182.142 135.004L181.4 134.333L181.394 134.34L181.388 134.347L182.142 135.004ZM185.808 126.975L186.783 127.198L186.785 127.187L185.808 126.975ZM187.117 120.953L186.141 120.733L186.14 120.74L187.117 120.953ZM190.433 105.767L191.412 105.971L191.413 105.969L190.433 105.767ZM190.782 94.7709L190.045 95.4466L190.06 95.4626L190.075 95.478L190.782 94.7709ZM188.164 93.5491L188.008 94.5369L188.034 94.5409L188.059 94.5436L188.164 93.5491ZM171.146 98.5236L171.78 99.2971L171.786 99.2919L171.146 98.5236ZM160.499 111.615L159.622 111.133L159.618 111.14L160.499 111.615ZM159.19 136.225L158.436 136.883L158.444 136.892L159.19 136.225ZM169.75 158.742L169.34 157.83L169.329 157.835L169.75 158.742ZM179.175 151.585L179.969 152.193L181.23 150.545L179.155 150.586L179.175 151.585ZM158.317 153.767L158.072 152.798L158.069 152.798L158.317 153.767ZM150.899 158.829H151.899V158.815L151.898 158.801L150.899 158.829ZM152.644 160.749L153.038 159.83L153.027 159.825L153.016 159.821L152.644 160.749ZM156.833 162.978C154.405 162.978 152.514 162.481 151.09 161.566L150.009 163.248C151.843 164.428 154.142 164.978 156.833 164.978V162.978ZM151.082 161.561C149.746 160.72 149.15 159.693 149.105 158.444L147.107 158.516C147.178 160.526 148.211 162.117 150.017 163.254L151.082 161.561ZM149.106 158.48C149.106 157.208 149.948 155.873 152.268 154.548L151.275 152.812C148.707 154.279 147.106 156.144 147.106 158.48H149.106ZM152.243 154.562C154.617 153.292 157.966 152.24 162.338 151.434L161.976 149.467C157.504 150.291 153.93 151.391 151.3 152.798L152.243 154.562ZM162.323 151.437C166.736 150.692 171.799 150.316 177.517 150.316V148.316C171.715 148.316 166.538 148.697 161.99 149.465L162.323 151.437ZM177.517 150.316H179.611V148.316H177.517V150.316ZM180.443 149.871C181.564 148.19 182.502 146.023 183.276 143.403L181.358 142.837C180.619 145.337 179.753 147.301 178.779 148.762L180.443 149.871ZM183.278 143.398C184.046 140.737 184.582 138.213 184.88 135.826L182.896 135.578C182.612 137.846 182.1 140.267 181.356 142.842L183.278 143.398ZM182.9 135.546C182.802 136.166 182.186 137.009 180.44 137.967L181.401 139.72C183.262 138.7 184.624 137.449 184.876 135.858L182.9 135.546ZM180.427 137.974C178.788 138.902 176.733 139.658 174.241 140.225L174.684 142.175C177.311 141.578 179.562 140.763 181.414 139.714L180.427 137.974ZM174.262 140.22C171.756 140.733 169.439 140.985 167.306 140.985V142.985C169.595 142.985 172.048 142.714 174.663 142.18L174.262 140.22ZM167.306 140.985C163.364 140.985 160.269 139.684 157.919 137.121L156.445 138.472C159.216 141.495 162.87 142.985 167.306 142.985V140.985ZM157.919 137.121C155.561 134.548 154.342 131.14 154.342 126.8H152.342C152.342 131.536 153.684 135.46 156.445 138.472L157.919 137.121ZM154.342 126.81C154.399 121.353 155.916 115.899 158.931 110.44L157.18 109.473C154.027 115.184 152.402 120.96 152.342 126.79L154.342 126.81ZM158.931 110.44C161.956 104.959 165.683 100.5 170.104 97.0423L168.872 95.4668C164.217 99.1074 160.321 103.782 157.18 109.473L158.931 110.44ZM170.105 97.0412C174.6 93.5137 178.722 91.8436 182.491 91.8436V89.8436C178.116 89.8436 173.568 91.7808 168.87 95.4679L170.105 97.0412ZM182.491 91.8436C186.147 91.8436 188.888 92.3324 190.792 93.2315L191.646 91.423C189.361 90.344 186.283 89.8436 182.491 89.8436V91.8436ZM190.822 93.2451C191.726 93.6362 192.371 94.1956 192.806 94.9165C193.247 95.6471 193.509 96.6066 193.535 97.8467L195.535 97.8042C195.503 96.3098 195.183 94.9857 194.519 93.8835C193.848 92.7716 192.864 91.9492 191.616 91.4094L190.822 93.2451ZM193.535 97.8255C193.535 98.4472 193.336 99.9473 192.896 102.429C192.462 104.873 191.81 108.185 190.938 112.371L192.896 112.779C193.769 108.585 194.426 105.251 194.865 102.778C195.297 100.344 195.535 98.6582 195.535 97.8255H193.535ZM190.938 112.369C189.195 120.679 187.365 128.725 185.448 136.51L187.39 136.988C189.313 129.18 191.148 121.111 192.896 112.78L190.938 112.369ZM185.446 136.517C184.516 140.41 183.757 143.382 183.167 145.441C182.871 146.472 182.622 147.258 182.42 147.81C182.318 148.088 182.234 148.29 182.168 148.428C182.087 148.595 182.071 148.584 182.133 148.522L183.548 149.936C183.741 149.743 183.877 149.488 183.969 149.297C184.075 149.076 184.185 148.807 184.298 148.499C184.524 147.88 184.788 147.041 185.089 145.992C185.692 143.89 186.459 140.884 187.391 136.981L185.446 136.517ZM182.769 150.227C184.401 150.343 185.624 150.404 186.419 150.404V148.404C185.7 148.404 184.538 148.348 182.912 148.232L182.769 150.227ZM186.419 150.404C187.879 150.404 189.172 150.252 190.279 149.927L189.715 148.008C188.843 148.264 187.751 148.404 186.419 148.404V150.404ZM188.998 148.926L188.91 151.02L190.909 151.103L190.996 149.009L188.998 148.926ZM189.65 150.096C188.248 150.473 186.48 150.673 184.324 150.673V152.673C186.59 152.673 188.545 152.465 190.17 152.027L189.65 150.096ZM184.356 150.673L181.651 150.586L181.586 152.585L184.292 152.672L184.356 150.673ZM180.741 151.106C178.821 154.618 175.702 157.484 171.31 159.68L172.204 161.469C176.888 159.127 180.344 156 182.496 152.065L180.741 151.106ZM171.31 159.68C166.919 161.875 162.099 162.978 156.833 162.978V164.978C162.389 164.978 167.518 163.812 172.204 161.469L171.31 159.68ZM166.957 140.542C170.781 140.542 173.952 140.249 176.445 139.641L175.971 137.698C173.693 138.253 170.697 138.542 166.957 138.542V140.542ZM176.467 139.635C179.038 138.945 181.19 137.619 182.896 135.66L181.388 134.347C179.952 135.995 178.149 137.113 175.949 137.703L176.467 139.635ZM182.884 135.674C184.671 133.696 185.947 130.837 186.782 127.198L184.833 126.751C184.039 130.21 182.872 132.704 181.4 134.333L182.884 135.674ZM186.785 127.187L188.094 121.165L186.14 120.74L184.831 126.762L186.785 127.187ZM188.092 121.173C189.431 115.235 190.538 110.167 191.412 105.971L189.454 105.563C188.583 109.745 187.479 114.802 186.141 120.733L188.092 121.173ZM191.413 105.969C191.85 103.84 192.18 102.118 192.401 100.806C192.618 99.5218 192.742 98.5618 192.742 98H190.742C190.742 98.3692 190.649 99.1691 190.429 100.474C190.214 101.752 189.889 103.448 189.454 105.566L191.413 105.969ZM192.742 98C192.742 96.3902 192.409 94.9838 191.489 94.0638L190.075 95.478C190.435 95.8381 190.742 96.5843 190.742 98H192.742ZM191.519 94.0952C190.687 93.1866 189.572 92.6918 188.269 92.5546L188.059 94.5436C188.967 94.6391 189.598 94.9588 190.045 95.4466L191.519 94.0952ZM188.32 92.5613C187.132 92.3737 185.29 92.2873 182.841 92.2873V94.2873C185.278 94.2873 186.986 94.3754 188.008 94.5369L188.32 92.5613ZM182.841 92.2873C178.906 92.2873 174.786 94.1883 170.506 97.7554L171.786 99.2919C175.884 95.8771 179.561 94.2873 182.841 94.2873V92.2873ZM170.512 97.7502C166.214 101.273 162.586 105.739 159.622 111.133L161.375 112.096C164.23 106.901 167.7 102.64 171.78 99.2971L170.512 97.7502ZM159.618 111.14C156.701 116.559 155.222 121.986 155.222 127.411H157.222C157.222 122.363 158.595 117.259 161.379 112.089L159.618 111.14ZM155.222 127.411C155.222 131.21 156.269 134.397 158.436 136.883L159.943 135.568C158.154 133.516 157.222 130.827 157.222 127.411H155.222ZM158.444 136.892C160.628 139.333 163.498 140.542 166.957 140.542V138.542C164.016 138.542 161.707 137.539 159.935 135.559L158.444 136.892ZM157.531 162.535C161.818 162.535 166.034 161.568 170.17 159.649L169.329 157.835C165.437 159.64 161.507 160.535 157.531 160.535V162.535ZM170.159 159.654C174.298 157.794 177.583 155.314 179.969 152.193L178.381 150.978C176.229 153.792 173.23 156.082 169.34 157.83L170.159 159.654ZM179.155 150.586C170.28 150.761 163.241 151.491 158.072 152.798L158.562 154.737C163.517 153.484 170.383 152.759 179.195 152.585L179.155 150.586ZM158.069 152.798C155.524 153.45 153.524 154.227 152.146 155.167C150.759 156.113 149.857 157.336 149.899 158.857L151.898 158.801C151.882 158.227 152.187 157.56 153.273 156.819C154.368 156.072 156.106 155.365 158.565 154.736L158.069 152.798ZM149.899 158.829C149.899 160.257 150.964 161.154 152.273 161.678L153.016 159.821C151.997 159.413 151.899 159.03 151.899 158.829H149.899ZM152.25 161.668C153.645 162.266 155.424 162.535 157.531 162.535V160.535C155.566 160.535 154.087 160.28 153.038 159.83L152.25 161.668ZM243.363 145.476L243.893 146.324L244.875 145.711L244.125 144.829L243.363 145.476ZM232.978 146L232.342 146.772L232.342 146.772L232.978 146ZM232.716 133.956L233.674 134.242L231.791 133.576L232.716 133.956ZM225.821 143.556L226.457 144.328L226.457 144.328L225.821 143.556ZM206.534 143.295L205.811 143.986L205.819 143.994L206.534 143.295ZM202.519 132.735H201.519V132.748L201.52 132.761L202.519 132.735ZM206.97 114.495L206.061 114.08L206.059 114.083L206.97 114.495ZM218.141 97.7382L218.858 98.4361L218.862 98.4315L218.141 97.7382ZM239.698 92.3273L239.28 93.2359L239.29 93.2407L239.301 93.2451L239.698 92.3273ZM242.927 97.8255L243.924 97.8967L243.927 97.8611V97.8255H242.927ZM234.636 138.582L235.593 138.873L235.606 138.829L235.615 138.785L234.636 138.582ZM234.199 141.2L235.198 141.253L235.207 141.086L235.161 140.925L234.199 141.2ZM235.159 143.818L234.484 144.555L234.498 144.569L234.514 144.582L235.159 143.818ZM241.879 143.731L242.641 143.083L242.079 142.422L241.345 142.885L241.879 143.731ZM226.956 139.105L226.21 138.439L226.21 138.44L226.956 139.105ZM234.985 123.658L235.943 123.943L235.953 123.91L235.961 123.877L234.985 123.658ZM219.712 99.92L218.977 99.2425L218.976 99.2429L219.712 99.92ZM205.487 133.084L206.487 133.1L206.487 133.092V133.084H205.487ZM208.367 141.549L209.103 140.872L209.103 140.872L208.367 141.549ZM242.833 144.628C241.152 145.679 239.159 146.222 236.818 146.222V148.222C239.48 148.222 241.851 147.601 243.893 146.324L242.833 144.628ZM236.818 146.222C235.425 146.222 234.386 145.864 233.613 145.228L232.342 146.772C233.548 147.765 235.069 148.222 236.818 148.222V146.222ZM233.613 145.228C232.878 144.622 232.494 143.812 232.494 142.684H230.494C230.494 144.348 231.1 145.749 232.342 146.772L233.613 145.228ZM232.494 142.684C232.494 139.689 232.889 136.877 233.674 134.242L231.757 133.671C230.913 136.505 230.494 139.511 230.494 142.684H232.494ZM231.791 133.576C230.218 137.397 228.012 140.457 225.186 142.784L226.457 144.328C229.565 141.769 231.956 138.428 233.641 134.337L231.791 133.576ZM225.186 142.784C222.356 145.115 219.519 146.222 216.658 146.222V148.222C220.08 148.222 223.352 146.885 226.457 144.328L225.186 142.784ZM216.658 146.222C212.695 146.222 209.593 144.993 207.249 142.595L205.819 143.994C208.595 146.833 212.242 148.222 216.658 148.222V146.222ZM207.257 142.603C204.898 140.138 203.63 136.87 203.519 132.708L201.52 132.761C201.642 137.326 203.05 141.099 205.811 143.986L207.257 142.603ZM203.519 132.735C203.519 127.326 204.957 121.387 207.882 114.906L206.059 114.083C203.05 120.751 201.519 126.972 201.519 132.735H203.519ZM207.88 114.91C210.865 108.366 214.527 102.88 218.858 98.436L217.425 97.0403C212.912 101.672 209.127 107.358 206.061 114.08L207.88 114.91ZM218.862 98.4315C223.199 93.9227 227.203 91.8436 230.883 91.8436V89.8436C226.418 89.8436 221.927 92.3609 217.421 97.0449L218.862 98.4315ZM230.883 91.8436C234.536 91.8436 237.312 92.3316 239.28 93.2359L240.115 91.4186C237.778 90.3447 234.677 89.8436 230.883 89.8436V91.8436ZM239.301 93.2451C240.203 93.6355 240.838 94.1921 241.257 94.9064C241.683 95.6312 241.927 96.5862 241.927 97.8255H243.927C243.927 96.3301 243.632 95.0015 242.982 93.8936C242.325 92.7752 241.345 91.95 240.095 91.4094L239.301 93.2451ZM241.929 97.7542C241.929 97.7518 241.923 97.8074 241.897 97.9656C241.874 98.1076 241.84 98.3014 241.795 98.5492C241.704 99.0442 241.571 99.74 241.395 100.639C241.042 102.435 240.521 105.03 239.83 108.426C238.449 115.217 236.391 125.201 233.657 138.379L235.615 138.785C238.35 125.606 240.408 115.619 241.79 108.825C242.481 105.428 243.004 102.827 243.357 101.023C243.534 100.122 243.669 99.4167 243.762 98.9098C243.848 98.437 243.912 98.0677 243.924 97.8967L241.929 97.7542ZM233.679 138.291C233.469 138.98 233.318 139.579 233.235 140.076C233.159 140.533 233.114 141.043 233.238 141.475L235.161 140.925C235.168 140.95 235.138 140.82 235.208 140.404C235.27 140.028 235.395 139.521 235.593 138.873L233.679 138.291ZM233.201 141.147C233.13 142.495 233.527 143.678 234.484 144.555L235.835 143.081C235.396 142.678 235.153 142.116 235.198 141.253L233.201 141.147ZM234.514 144.582C235.481 145.4 236.683 145.778 238.039 145.778V143.778C237.069 143.778 236.351 143.516 235.805 143.055L234.514 144.582ZM238.039 145.778C239.661 145.778 241.131 145.387 242.413 144.576L241.345 142.885C240.417 143.472 239.327 143.778 238.039 143.778V145.778ZM241.118 144.379L242.601 146.124L244.125 144.829L242.641 143.083L241.118 144.379ZM216.309 145.778C220.409 145.778 224.209 143.685 227.702 139.771L226.21 138.44C222.953 142.089 219.655 143.778 216.309 143.778V145.778ZM227.701 139.772C231.258 135.794 233.994 130.501 235.943 123.943L234.026 123.373C232.136 129.732 229.519 134.737 226.21 138.439L227.701 139.772ZM235.961 123.877C237.678 116.223 238.967 110.229 239.828 105.897C240.258 103.731 240.582 101.975 240.799 100.63C241.013 99.3107 241.134 98.3243 241.134 97.7382H239.134C239.134 98.1411 239.041 98.9765 238.825 100.311C238.613 101.622 238.294 103.352 237.866 105.507C237.01 109.815 235.725 115.791 234.009 123.439L235.961 123.877ZM241.134 97.7382C241.134 96.7571 240.93 95.8564 240.468 95.0855C240.002 94.3085 239.313 93.7308 238.456 93.3382L237.623 95.1563C238.163 95.4038 238.521 95.7279 238.753 96.1145C238.989 96.5072 239.134 97.032 239.134 97.7382H241.134ZM238.456 93.3382C236.852 92.6031 234.398 92.2873 231.232 92.2873V94.2873C234.35 94.2873 236.434 94.6115 237.623 95.1563L238.456 93.3382ZM231.232 92.2873C227.207 92.2873 223.118 94.7463 218.977 99.2425L220.448 100.597C224.452 96.25 228.043 94.2873 231.232 94.2873V92.2873ZM218.976 99.2429C214.876 103.7 211.444 109.122 208.672 115.492L210.506 116.29C213.202 110.093 216.52 104.867 220.448 100.597L218.976 99.2429ZM208.672 115.492C205.899 121.863 204.487 127.731 204.487 133.084H206.487C206.487 128.079 207.809 122.486 210.506 116.29L208.672 115.492ZM204.487 133.067C204.425 136.761 205.446 139.849 207.63 142.226L209.103 140.872C207.331 138.944 206.432 136.388 206.487 133.1L204.487 133.067ZM207.63 142.226C209.824 144.613 212.754 145.778 216.309 145.778V143.778C213.231 143.778 210.866 142.79 209.103 140.872L207.63 142.226Z" fill="white"/>
<path d="M78.4587 91.1927L66.3278 77.7527L68.6841 75.6582L80.8151 89.0982L78.4587 91.1927Z" fill="url(#paint1_linear)"/>
<path d="M78.4587 91.1927L77.7164 91.8628L78.3813 92.5995L79.1231 91.9401L78.4587 91.1927ZM66.3278 77.7527L65.6634 77.0053L64.9103 77.6748L65.5854 78.4228L66.3278 77.7527ZM68.6841 75.6582L69.4265 74.9882L68.7615 74.2514L68.0198 74.9108L68.6841 75.6582ZM80.8151 89.0982L81.4794 89.8456L82.2325 89.1762L81.5574 88.4281L80.8151 89.0982ZM79.201 90.5227L67.0701 77.0827L65.5854 78.4228L77.7164 91.8628L79.201 90.5227ZM66.9921 78.5001L69.3485 76.4056L68.0198 74.9108L65.6634 77.0053L66.9921 78.5001ZM67.9418 76.3282L80.0727 89.7682L81.5574 88.4281L69.4265 74.9882L67.9418 76.3282ZM80.1507 88.3508L77.7943 90.4453L79.1231 91.9401L81.4794 89.8456L80.1507 88.3508Z" fill="white"/>
<path d="M273.459 91.1927L261.328 77.7527L263.684 75.6582L275.815 89.0982L273.459 91.1927Z" fill="url(#paint2_linear)"/>
<path d="M273.459 91.1927L272.716 91.8628L273.381 92.5995L274.123 91.9401L273.459 91.1927ZM261.328 77.7527L260.663 77.0053L259.91 77.6748L260.585 78.4228L261.328 77.7527ZM263.684 75.6582L264.426 74.9882L263.762 74.2514L263.02 74.9108L263.684 75.6582ZM275.815 89.0982L276.479 89.8456L277.233 89.1762L276.557 88.4281L275.815 89.0982ZM274.201 90.5227L262.07 77.0827L260.585 78.4228L272.716 91.8628L274.201 90.5227ZM261.992 78.5001L264.349 76.4056L263.02 74.9108L260.663 77.0053L261.992 78.5001ZM262.942 76.3282L275.073 89.7682L276.557 88.4281L264.426 74.9882L262.942 76.3282ZM275.151 88.3508L272.794 90.4453L274.123 91.9401L276.479 89.8456L275.151 88.3508Z" fill="white"/>
<defs>
<linearGradient id="paint0_linear" x1="173" y1="0" x2="173" y2="228" gradientUnits="userSpaceOnUse">
<stop stop-color="#C229F8"/>
<stop offset="1" stop-color="#005DB4"/>
</linearGradient>
<linearGradient id="paint1_linear" x1="66" y1="0" x2="66" y2="228" gradientUnits="userSpaceOnUse">
<stop stop-color="#C229F8"/>
<stop offset="1" stop-color="#005DB4"/>
</linearGradient>
<linearGradient id="paint2_linear" x1="261" y1="0" x2="261" y2="228" gradientUnits="userSpaceOnUse">
<stop stop-color="#C229F8"/>
<stop offset="1" stop-color="#005DB4"/>
</linearGradient>
</defs>
</svg>
