<svg xmlns="http://www.w3.org/2000/svg" width="346" height="228" fill="none" viewBox="0 0 346 228"><path fill="url(#paint0_linear)" d="M124.063 147.222C119.06 147.222 115.423 146.291 113.154 144.429C110.943 142.567 109.838 139.425 109.838 135.004C109.838 131.862 110.362 127.905 111.409 123.135L115.598 103.935C115.772 103.12 115.86 102.422 115.86 101.84C115.86 100.153 115.132 98.9018 113.678 98.0873C112.223 97.2145 109.663 96.8073 105.998 96.8655L107.22 92.0655C111.758 92.0073 115.22 92.7345 117.605 94.2473C119.991 95.76 121.183 97.9418 121.183 100.793C121.183 101.2 121.125 101.869 121.009 102.8L116.558 123.135C115.627 127.265 115.162 130.756 115.162 133.607C115.162 136.807 115.889 139.076 117.343 140.415C118.798 141.753 121.096 142.422 124.238 142.422C126.391 142.422 128.194 141.956 129.649 141.025C131.103 140.036 132.82 138.233 134.798 135.615L138.812 138.495C136.311 141.811 133.983 144.109 131.831 145.389C129.736 146.611 127.147 147.222 124.063 147.222ZM121.794 83.0764C120.107 83.0764 118.885 82.8145 118.129 82.2909C117.372 81.7091 116.994 80.8073 116.994 79.5855C116.994 79.0036 117.082 78.3636 117.256 77.6655C117.605 75.9782 118.187 74.8436 119.002 74.2618C119.816 73.6218 121.125 73.3018 122.929 73.3018C124.616 73.3018 125.838 73.5636 126.594 74.0873C127.351 74.6109 127.729 75.4836 127.729 76.7055C127.729 77.4618 127.671 78.0727 127.554 78.5382C127.147 80.2836 126.536 81.4764 125.722 82.1164C124.907 82.7564 123.598 83.0764 121.794 83.0764ZM156.833 163.978C153.924 163.978 151.568 163.396 149.764 162.233C148.019 161.069 147.175 159.498 147.233 157.52C147.233 155.367 148.513 153.505 151.073 151.935C153.633 150.364 157.241 149.142 161.895 148.269C166.608 147.396 172.077 146.96 178.302 146.96H179.437C180.542 145.04 181.59 141.724 182.579 137.011C181.648 138.465 179.611 139.658 176.47 140.589C173.386 141.52 170.331 141.985 167.306 141.985C162.826 141.985 159.19 140.618 156.397 137.884C153.662 135.091 152.295 131.425 152.295 126.887C152.295 121.185 153.837 115.542 156.921 109.956C160.004 104.313 163.902 99.7164 168.615 96.1673C173.386 92.6182 178.011 90.8436 182.491 90.8436C186.681 90.8436 189.881 91.4545 192.091 92.6764C194.361 93.84 195.466 95.8764 195.408 98.7855C195.408 100.124 194.681 104.458 193.226 111.789C191.771 119.062 190.171 126.335 188.426 133.607C186.681 140.88 185.43 145.331 184.673 146.96C186.186 146.96 187.466 146.902 188.513 146.785C189.561 146.669 190.841 146.378 192.353 145.913L191.044 150.8C189.066 151.382 186.186 151.673 182.404 151.673C180.135 155.396 176.644 158.364 171.931 160.575C167.277 162.844 162.244 163.978 156.833 163.978ZM167.481 137.185C171.262 137.185 174.259 136.953 176.47 136.487C178.681 135.964 180.455 134.975 181.793 133.52C183.131 132.007 184.121 129.767 184.761 126.8L185.808 122C187.088 115.949 188.135 110.858 188.95 106.727C189.822 102.596 190.288 100.124 190.346 99.3091C190.346 98.0873 190.084 97.2436 189.561 96.7782C189.037 96.2545 188.281 95.9345 187.291 95.8182C186.302 95.7018 184.644 95.6436 182.317 95.6436C178.884 95.6436 175.19 97.2145 171.233 100.356C167.335 103.498 164.048 107.484 161.371 112.313C158.695 117.142 157.357 121.942 157.357 126.713C157.415 129.855 158.346 132.385 160.15 134.305C162.011 136.225 164.455 137.185 167.481 137.185ZM158.055 159.178C161.43 159.178 164.775 158.48 168.091 157.084C171.408 155.745 174.142 153.971 176.295 151.76C169.313 151.993 163.582 152.633 159.102 153.68C154.622 154.727 152.382 155.949 152.382 157.345C152.382 157.869 152.906 158.305 153.953 158.655C155.059 159.004 156.426 159.178 158.055 159.178ZM245.021 144.167C244.265 145.098 243.101 145.825 241.53 146.349C240.018 146.931 238.447 147.222 236.818 147.222C234.956 147.222 233.414 146.727 232.192 145.738C231.029 144.749 230.447 143.498 230.447 141.985C230.447 139.658 230.65 138.087 231.058 137.273C229.37 140.298 227.218 142.713 224.599 144.516C221.981 146.32 219.334 147.222 216.658 147.222C212.178 147.222 208.541 145.796 205.749 142.945C203.014 140.095 201.676 136.371 201.734 131.775C201.734 125.84 203.218 119.673 206.185 113.273C209.21 106.873 212.992 101.549 217.53 97.3018C222.069 92.9964 226.519 90.8436 230.883 90.8436C235.13 90.8436 238.33 91.4545 240.483 92.6764C242.694 93.8982 243.799 95.9927 243.799 98.96C243.799 99.7164 243.159 103.178 241.879 109.345C240.599 115.455 238.621 124.764 235.945 137.273L235.596 139.891C235.654 140.647 235.945 141.258 236.469 141.724C236.992 142.189 237.69 142.422 238.563 142.422C239.203 142.422 239.901 142.218 240.658 141.811C241.414 141.404 242.083 140.851 242.665 140.153L245.021 144.167ZM216.832 142.422C220.149 142.422 223.378 140.676 226.519 137.185C229.661 133.695 232.134 129.156 233.938 123.571L234.81 119.469C235.218 117.491 235.945 113.884 236.992 108.647C238.098 103.353 238.679 100.24 238.738 99.3091C238.679 97.9127 238.039 96.9527 236.818 96.4291C235.654 95.9055 233.618 95.6436 230.709 95.6436C227.392 95.6436 223.872 97.5927 220.149 101.491C216.425 105.331 213.254 110.102 210.636 115.804C208.076 121.447 206.796 126.713 206.796 131.6C206.854 134.858 207.785 137.476 209.589 139.455C211.392 141.433 213.807 142.422 216.832 142.422Z"/><path fill="#fff" d="M113.154 144.429L112.51 145.194L112.52 145.202L113.154 144.429ZM111.409 123.135L112.386 123.349L112.386 123.348L111.409 123.135ZM115.598 103.935L116.575 104.148L116.576 104.144L115.598 103.935ZM113.678 98.0873L113.163 98.9448L113.176 98.9525L113.189 98.9598L113.678 98.0873ZM105.998 96.8655L105.029 96.6188L104.706 97.8861L106.014 97.8653L105.998 96.8655ZM107.22 92.0655L107.207 91.0655L106.44 91.0754L106.251 91.8188L107.22 92.0655ZM117.605 94.2473L118.141 93.4028L118.141 93.4028L117.605 94.2473ZM121.009 102.8L121.986 103.014L121.995 102.969L122.001 102.924L121.009 102.8ZM116.558 123.135L117.533 123.354L117.535 123.348L116.558 123.135ZM129.649 141.025L130.188 141.868L130.2 141.86L130.211 141.852L129.649 141.025ZM134.798 135.615L135.381 134.802L134.588 134.233L134 135.012L134.798 135.615ZM138.812 138.495L139.611 139.097L140.228 138.279L139.395 137.682L138.812 138.495ZM131.831 145.389L132.335 146.253L132.342 146.249L131.831 145.389ZM118.129 82.2909L117.519 83.0835L117.539 83.0988L117.56 83.1131L118.129 82.2909ZM117.256 77.6655L118.226 77.908L118.231 77.8881L118.235 77.8681L117.256 77.6655ZM119.002 74.2618L119.583 75.0756L119.601 75.0623L119.619 75.0481L119.002 74.2618ZM126.594 74.0873L127.163 73.2651L127.163 73.2651L126.594 74.0873ZM127.554 78.5382L126.584 78.2956L126.582 78.3033L126.58 78.311L127.554 78.5382ZM125.722 82.1164L126.339 82.9027L126.339 82.9027L125.722 82.1164ZM124.063 146.222C119.143 146.222 115.79 145.299 113.789 143.656L112.52 145.202C115.056 147.283 118.977 148.222 124.063 148.222V146.222ZM113.798 143.664C111.911 142.075 110.838 139.288 110.838 135.004H108.838C108.838 139.563 109.976 143.06 112.51 145.194L113.798 143.664ZM110.838 135.004C110.838 131.962 111.346 128.084 112.386 123.349L110.432 122.92C109.377 127.727 108.838 131.762 108.838 135.004H110.838ZM112.386 123.348L116.575 104.148L114.621 103.721L110.432 122.921L112.386 123.348ZM116.576 104.144C116.759 103.288 116.86 102.515 116.86 101.84H114.86C114.86 102.328 114.786 102.952 114.62 103.725L116.576 104.144ZM116.86 101.84C116.86 100.849 116.645 99.9356 116.179 99.1337C115.712 98.3313 115.026 97.696 114.167 97.2148L113.189 98.9598C113.785 99.2931 114.189 99.6905 114.45 100.139C114.711 100.588 114.86 101.143 114.86 101.84H116.86ZM114.192 97.2298C112.476 96.2002 109.663 95.8072 105.982 95.8656L106.014 97.8653C109.664 97.8074 111.97 98.2289 113.163 98.9448L114.192 97.2298ZM106.967 97.1121L108.189 92.3121L106.251 91.8188L105.029 96.6188L106.967 97.1121ZM107.233 93.0654C111.684 93.0083 114.92 93.7284 117.07 95.0918L118.141 93.4028C115.52 91.7407 111.832 91.0062 107.207 91.0655L107.233 93.0654ZM117.07 95.0918C119.163 96.419 120.183 98.2804 120.183 100.793H122.183C122.183 97.6032 120.819 95.101 118.141 93.4028L117.07 95.0918ZM120.183 100.793C120.183 101.132 120.133 101.747 120.017 102.676L122.001 102.924C122.118 101.991 122.183 101.268 122.183 100.793H120.183ZM120.032 102.586L115.581 122.921L117.535 123.348L121.986 103.014L120.032 102.586ZM115.582 122.915C114.642 127.087 114.162 130.656 114.162 133.607H116.162C116.162 130.857 116.612 127.444 117.533 123.354L115.582 122.915ZM114.162 133.607C114.162 136.919 114.908 139.533 116.666 141.15L118.02 139.679C116.869 138.62 116.162 136.696 116.162 133.607H114.162ZM116.666 141.15C118.388 142.734 120.986 143.422 124.238 143.422V141.422C121.206 141.422 119.208 140.771 118.02 139.679L116.666 141.15ZM124.238 143.422C126.535 143.422 128.537 142.924 130.188 141.868L129.11 140.183C127.852 140.988 126.247 141.422 124.238 141.422V143.422ZM130.211 141.852C131.803 140.77 133.598 138.861 135.596 136.217L134 135.012C132.041 137.605 130.404 139.303 129.086 140.199L130.211 141.852ZM134.215 136.427L138.23 139.307L139.395 137.682L135.381 134.802L134.215 136.427ZM138.014 137.892C135.546 141.164 133.311 143.345 131.32 144.53L132.342 146.249C134.656 144.873 137.076 142.457 139.611 139.097L138.014 137.892ZM131.327 144.525C129.421 145.637 127.017 146.222 124.063 146.222V148.222C127.277 148.222 130.051 147.585 132.334 146.253L131.327 144.525ZM121.794 82.0764C120.164 82.0764 119.197 81.8145 118.698 81.4687L117.56 83.1131C118.573 83.8146 120.05 84.0764 121.794 84.0764V82.0764ZM118.739 81.4983C118.295 81.1572 117.994 80.5921 117.994 79.5855H115.994C115.994 81.0224 116.45 82.261 117.519 83.0835L118.739 81.4983ZM117.994 79.5855C117.994 79.102 118.067 78.5447 118.226 77.908L116.286 77.4229C116.096 78.1825 115.994 78.9053 115.994 79.5855H117.994ZM118.235 77.8681C118.567 76.2634 119.078 75.4365 119.583 75.0756L118.42 73.4481C117.296 74.2508 116.643 75.6929 116.277 77.4629L118.235 77.8681ZM119.619 75.0481C120.168 74.6168 121.2 74.3018 122.929 74.3018V72.3018C121.05 72.3018 119.464 72.6269 118.384 73.4755L119.619 75.0481ZM122.929 74.3018C124.559 74.3018 125.526 74.5637 126.025 74.9095L127.163 73.2651C126.15 72.5636 124.673 72.3018 122.929 72.3018V74.3018ZM126.025 74.9095C126.427 75.1877 126.729 75.6931 126.729 76.7055H128.729C128.729 75.2742 128.274 74.0342 127.163 73.2651L126.025 74.9095ZM126.729 76.7055C126.729 77.4212 126.673 77.9414 126.584 78.2956L128.524 78.7807C128.669 78.2041 128.729 77.5025 128.729 76.7055H126.729ZM126.58 78.311C126.191 79.9809 125.649 80.9013 125.104 81.33L126.339 82.9027C127.423 82.0514 128.103 80.5864 128.528 78.7654L126.58 78.311ZM125.104 81.33C124.555 81.7614 123.523 82.0764 121.794 82.0764V84.0764C123.673 84.0764 125.259 83.7513 126.339 82.9027L125.104 81.33ZM149.764 162.233L149.209 163.065L149.216 163.069L149.222 163.073L149.764 162.233ZM147.233 157.52L148.233 157.549L148.233 157.535V157.52H147.233ZM151.073 151.935L150.55 151.082L150.55 151.082L151.073 151.935ZM161.895 148.269L161.713 147.286L161.711 147.286L161.895 148.269ZM179.437 146.96V147.96H180.015L180.303 147.459L179.437 146.96ZM182.579 137.011L183.557 137.216L181.736 136.472L182.579 137.011ZM176.47 140.589L176.186 139.63L176.181 139.632L176.47 140.589ZM156.397 137.884L155.682 138.583L155.69 138.591L155.697 138.598L156.397 137.884ZM156.921 109.956L157.796 110.44L157.798 110.436L156.921 109.956ZM168.615 96.1673L168.018 95.3649L168.013 95.3685L168.615 96.1673ZM192.091 92.6764L191.608 93.5516L191.621 93.5591L191.635 93.5662L192.091 92.6764ZM195.408 98.7855L194.408 98.7655L194.408 98.7755V98.7855H195.408ZM193.226 111.789L194.207 111.985L194.207 111.984L193.226 111.789ZM188.426 133.607L189.398 133.841L189.398 133.841L188.426 133.607ZM184.673 146.96L183.766 146.539L183.106 147.96H184.673V146.96ZM188.513 146.785L188.403 145.792L188.403 145.792L188.513 146.785ZM192.353 145.913L193.319 146.171L193.787 144.425L192.059 144.957L192.353 145.913ZM191.044 150.8L191.326 151.759L191.865 151.601L192.01 151.059L191.044 150.8ZM182.404 151.673V150.673H181.842L181.55 151.152L182.404 151.673ZM171.931 160.575L171.507 159.669L171.5 159.672L171.493 159.676L171.931 160.575ZM176.47 136.487L176.676 137.466L176.688 137.463L176.7 137.46L176.47 136.487ZM181.793 133.52L182.529 134.197L182.536 134.19L182.542 134.183L181.793 133.52ZM184.761 126.8L183.783 126.587L183.783 126.589L184.761 126.8ZM185.808 122L186.785 122.213L186.786 122.207L185.808 122ZM188.95 106.727L187.971 106.521L187.968 106.534L188.95 106.727ZM190.346 99.3091L191.343 99.3803L191.346 99.3448V99.3091H190.346ZM189.561 96.7782L188.853 97.4853L188.874 97.5061L188.896 97.5256L189.561 96.7782ZM187.291 95.8182L187.408 94.825L187.408 94.825L187.291 95.8182ZM171.233 100.356L170.611 99.5732L170.606 99.5778L171.233 100.356ZM161.371 112.313L162.246 112.797L162.246 112.797L161.371 112.313ZM157.357 126.713H156.357V126.722L156.357 126.731L157.357 126.713ZM160.15 134.305L159.421 134.99L159.426 134.996L159.432 135.002L160.15 134.305ZM168.091 157.084L167.717 156.156L167.71 156.159L167.703 156.162L168.091 157.084ZM176.295 151.76L177.012 152.458L178.745 150.678L176.262 150.761L176.295 151.76ZM159.102 153.68L158.875 152.706L158.875 152.706L159.102 153.68ZM153.953 158.655L153.637 159.603L153.645 159.606L153.652 159.608L153.953 158.655ZM156.833 162.978C154.05 162.978 151.9 162.421 150.306 161.392L149.222 163.073C151.235 164.372 153.798 164.978 156.833 164.978V162.978ZM150.319 161.401C148.84 160.414 148.185 159.159 148.233 157.549L146.234 157.491C146.165 159.838 147.198 161.724 149.209 163.065L150.319 161.401ZM148.233 157.52C148.233 155.844 149.203 154.255 151.596 152.787L150.55 151.082C147.823 152.755 146.233 154.891 146.233 157.52H148.233ZM151.596 152.787C154.01 151.306 157.484 150.114 162.079 149.252L161.711 147.286C156.997 148.17 153.257 149.422 150.55 151.082L151.596 152.787ZM162.077 149.252C166.715 148.393 172.121 147.96 178.302 147.96V145.96C172.033 145.96 166.5 146.399 161.713 147.286L162.077 149.252ZM178.302 147.96H179.437V145.96H178.302V147.96ZM180.303 147.459C181.494 145.392 182.566 141.94 183.557 137.216L181.6 136.806C180.613 141.507 179.591 144.688 178.57 146.461L180.303 147.459ZM181.736 136.472C181.009 137.608 179.277 138.714 176.186 139.63L176.754 141.548C179.945 140.602 182.286 139.323 183.421 137.55L181.736 136.472ZM176.181 139.632C173.185 140.536 170.227 140.985 167.306 140.985V142.985C170.435 142.985 173.587 142.504 176.759 141.546L176.181 139.632ZM167.306 140.985C163.046 140.985 159.675 139.694 157.096 137.169L155.697 138.598C158.704 141.543 162.606 142.985 167.306 142.985V140.985ZM157.111 137.184C154.589 134.608 153.295 131.209 153.295 126.887H151.295C151.295 131.642 152.735 135.574 155.682 138.583L157.111 137.184ZM153.295 126.887C153.295 121.374 154.784 115.895 157.796 110.44L156.045 109.473C152.89 115.189 151.295 120.997 151.295 126.887H153.295ZM157.798 110.436C160.82 104.906 164.627 100.422 169.217 96.9661L168.013 95.3685C163.177 99.0106 159.189 103.72 156.043 109.477L157.798 110.436ZM169.212 96.9696C173.866 93.5071 178.287 91.8436 182.491 91.8436V89.8436C177.736 89.8436 172.906 91.7292 168.018 95.3649L169.212 96.9696ZM182.491 91.8436C186.61 91.8436 189.612 92.4488 191.608 93.5516L192.575 91.8011C190.149 90.4603 186.751 89.8436 182.491 89.8436V91.8436ZM191.635 93.5662C192.609 94.0658 193.296 94.73 193.743 95.5535C194.195 96.3849 194.434 97.4406 194.408 98.7655L196.408 98.8054C196.439 97.2212 196.155 95.8041 195.501 94.5993C194.843 93.3864 193.843 92.4506 192.548 91.7865L191.635 93.5662ZM194.408 98.7855C194.408 99.3555 194.243 100.688 193.876 102.875C193.515 105.028 192.972 107.933 192.245 111.594L194.207 111.984C194.935 108.314 195.483 105.387 195.849 103.205C196.209 101.058 196.408 99.5535 196.408 98.7855H194.408ZM192.245 111.593C190.793 118.853 189.196 126.113 187.454 133.374L189.398 133.841C191.147 126.556 192.749 119.271 194.207 111.985L192.245 111.593ZM187.454 133.374C186.582 137.004 185.837 139.921 185.216 142.129C184.589 144.359 184.106 145.806 183.766 146.539L185.58 147.381C185.997 146.484 186.517 144.892 187.141 142.671C187.772 140.428 188.524 137.483 189.398 133.841L187.454 133.374ZM184.673 147.96C186.208 147.96 187.528 147.901 188.624 147.779L188.403 145.792C187.404 145.903 186.163 145.96 184.673 145.96V147.96ZM188.624 147.779C189.756 147.654 191.101 147.344 192.647 146.869L192.059 144.957C190.58 145.412 189.365 145.685 188.403 145.792L188.624 147.779ZM191.387 145.654L190.078 150.541L192.01 151.059L193.319 146.171L191.387 145.654ZM190.762 149.841C188.922 150.382 186.156 150.673 182.404 150.673V152.673C186.216 152.673 189.21 152.382 191.326 151.759L190.762 149.841ZM181.55 151.152C179.402 154.678 176.077 157.525 171.507 159.669L172.356 161.48C177.212 159.202 180.868 156.115 183.258 152.193L181.55 151.152ZM171.493 159.676C166.981 161.875 162.099 162.978 156.833 162.978V164.978C162.389 164.978 167.572 163.812 172.37 161.473L171.493 159.676ZM167.481 138.185C171.292 138.185 174.367 137.952 176.676 137.466L176.264 135.509C174.151 135.954 171.233 136.185 167.481 136.185V138.185ZM176.7 137.46C179.075 136.898 181.036 135.82 182.529 134.197L181.057 132.843C179.874 134.129 178.286 135.029 176.239 135.514L176.7 137.46ZM182.542 134.183C184.037 132.493 185.079 130.068 185.738 127.011L183.783 126.589C183.162 129.467 182.226 131.522 181.044 132.857L182.542 134.183ZM185.738 127.013L186.785 122.213L184.831 121.787L183.783 126.587L185.738 127.013ZM186.786 122.207C188.067 116.153 189.115 111.058 189.931 106.921L187.968 106.534C187.155 110.659 186.109 115.745 184.829 121.793L186.786 122.207ZM189.928 106.934C190.793 102.839 191.279 100.281 191.343 99.3803L189.349 99.2378C189.296 99.966 188.852 102.353 187.971 106.521L189.928 106.934ZM191.346 99.3091C191.346 98.0021 191.076 96.7875 190.225 96.0308L188.896 97.5256C189.092 97.6998 189.346 98.1724 189.346 99.3091H191.346ZM190.268 96.0711C189.538 95.3413 188.544 94.9586 187.408 94.825L187.175 96.8113C188.017 96.9105 188.536 97.1678 188.853 97.4853L190.268 96.0711ZM187.408 94.825C186.355 94.7012 184.646 94.6436 182.317 94.6436V96.6436C184.643 96.6436 186.249 96.7025 187.175 96.8113L187.408 94.825ZM182.317 94.6436C178.573 94.6436 174.664 96.3549 170.611 99.5733L171.855 101.139C175.715 98.0742 179.195 96.6436 182.317 96.6436V94.6436ZM170.606 99.5778C166.597 102.809 163.229 106.898 160.497 111.828L162.246 112.797C164.866 108.07 168.073 104.188 171.861 101.135L170.606 99.5778ZM160.497 111.828C157.751 116.782 156.357 121.747 156.357 126.713H158.357C158.357 122.136 159.639 117.502 162.246 112.797L160.497 111.828ZM156.357 126.731C156.419 130.071 157.416 132.856 159.421 134.99L160.878 133.621C159.276 131.915 158.411 129.639 158.357 126.694L156.357 126.731ZM159.432 135.002C161.507 137.142 164.223 138.185 167.481 138.185V136.185C164.687 136.185 162.516 135.309 160.868 133.609L159.432 135.002ZM158.055 160.178C161.572 160.178 165.049 159.45 168.479 158.005L167.703 156.162C164.502 157.51 161.288 158.178 158.055 158.178V160.178ZM168.466 158.011C171.89 156.629 174.748 154.783 177.012 152.458L175.579 151.062C173.537 153.159 170.925 154.862 167.717 156.156L168.466 158.011ZM176.262 150.761C169.244 150.994 163.442 151.639 158.875 152.706L159.33 154.654C163.722 153.627 169.382 152.991 176.328 152.759L176.262 150.761ZM158.875 152.706C156.605 153.237 154.822 153.828 153.583 154.504C152.409 155.145 151.382 156.055 151.382 157.345H153.382C153.382 157.24 153.476 156.841 154.541 156.26C155.543 155.713 157.119 155.17 159.33 154.654L158.875 152.706ZM151.382 157.345C151.382 157.988 151.719 158.487 152.135 158.834C152.533 159.166 153.059 159.411 153.637 159.603L154.269 157.706C153.8 157.549 153.54 157.401 153.415 157.297C153.308 157.208 153.382 157.226 153.382 157.345H151.382ZM153.652 159.608C154.886 159.998 156.362 160.178 158.055 160.178V158.178C156.49 158.178 155.232 158.01 154.254 157.701L153.652 159.608ZM245.021 144.167L245.797 144.798L246.235 144.259L245.884 143.661L245.021 144.167ZM241.53 146.349L241.214 145.4L241.193 145.408L241.171 145.416L241.53 146.349ZM232.192 145.738L231.545 146.5L231.554 146.508L231.563 146.515L232.192 145.738ZM231.058 137.273L231.952 137.72L230.184 136.786L231.058 137.273ZM224.599 144.516L225.167 145.34L225.167 145.34L224.599 144.516ZM205.749 142.945L205.027 143.638L205.034 143.645L205.749 142.945ZM201.734 131.775L202.734 131.787V131.775H201.734ZM206.185 113.273L205.281 112.845L205.278 112.852L206.185 113.273ZM217.53 97.3018L218.214 98.032L218.219 98.0273L217.53 97.3018ZM240.483 92.6764L239.989 93.5461L239.999 93.5516L240.483 92.6764ZM241.879 109.345L242.858 109.551L242.859 109.549L241.879 109.345ZM235.945 137.273L234.967 137.064L234.959 137.102L234.954 137.141L235.945 137.273ZM235.596 139.891L234.605 139.759L234.591 139.863L234.599 139.968L235.596 139.891ZM236.469 141.724L237.133 140.976L237.133 140.976L236.469 141.724ZM240.658 141.811L241.132 142.691L241.132 142.691L240.658 141.811ZM242.665 140.153L243.527 139.647L242.807 138.42L241.897 139.513L242.665 140.153ZM226.519 137.185L225.776 136.516L225.776 136.516L226.519 137.185ZM233.938 123.571L234.889 123.878L234.905 123.829L234.916 123.779L233.938 123.571ZM234.81 119.469L235.789 119.677L235.79 119.671L234.81 119.469ZM236.992 108.647L236.013 108.443L236.012 108.451L236.992 108.647ZM238.738 99.3091L239.736 99.3715L239.739 99.3195L239.737 99.2675L238.738 99.3091ZM236.818 96.4291L236.407 97.341L236.415 97.3447L236.424 97.3482L236.818 96.4291ZM220.149 101.491L220.867 102.187L220.872 102.182L220.149 101.491ZM210.636 115.804L209.727 115.386L209.725 115.391L210.636 115.804ZM206.796 131.6H205.796V131.609L205.796 131.618L206.796 131.6ZM244.245 143.537C243.646 144.274 242.671 144.915 241.214 145.4L241.847 147.298C243.532 146.736 244.884 145.922 245.797 144.798L244.245 143.537ZM241.171 145.416C239.774 145.953 238.325 146.222 236.818 146.222V148.222C238.569 148.222 240.261 147.909 241.889 147.282L241.171 145.416ZM236.818 146.222C235.141 146.222 233.834 145.78 232.821 144.961L231.563 146.515C232.994 147.674 234.771 148.222 236.818 148.222V146.222ZM232.84 144.976C231.897 144.175 231.447 143.202 231.447 141.985H229.447C229.447 143.795 230.16 145.323 231.545 146.5L232.84 144.976ZM231.447 141.985C231.447 140.847 231.497 139.918 231.591 139.19C231.688 138.447 231.822 137.98 231.952 137.72L230.163 136.826C229.886 137.38 229.715 138.106 229.608 138.933C229.499 139.776 229.447 140.797 229.447 141.985H231.447ZM230.184 136.786C228.565 139.689 226.513 141.984 224.032 143.693L225.167 145.34C227.923 143.441 230.176 140.907 231.931 137.76L230.184 136.786ZM224.032 143.693C221.549 145.404 219.096 146.222 216.658 146.222V148.222C219.572 148.222 222.414 147.236 225.167 145.34L224.032 143.693ZM216.658 146.222C212.41 146.222 209.044 144.88 206.463 142.246L205.034 143.645C208.039 146.712 211.945 148.222 216.658 148.222V146.222ZM206.47 142.253C203.947 139.623 202.679 136.167 202.734 131.787L200.734 131.762C200.673 136.574 202.081 140.566 205.027 143.638L206.47 142.253ZM202.734 131.775C202.734 126.01 204.175 119.986 207.092 113.693L205.278 112.852C202.261 119.359 200.734 125.67 200.734 131.775H202.734ZM207.089 113.7C210.068 107.398 213.779 102.182 218.214 98.0319L216.847 96.5717C212.205 100.916 208.353 106.347 205.281 112.845L207.089 113.7ZM218.219 98.0273C222.651 93.8218 226.868 91.8436 230.883 91.8436V89.8436C226.171 89.8436 221.486 92.1709 216.842 96.5764L218.219 98.0273ZM230.883 91.8436C235.066 91.8436 238.06 92.4507 239.99 93.546L240.977 91.8067C238.601 90.4584 235.195 89.8436 230.883 89.8436V91.8436ZM239.999 93.5516C241.83 94.5634 242.799 96.2805 242.799 98.96H244.799C244.799 95.705 243.558 93.233 240.967 91.8011L239.999 93.5516ZM242.799 98.96C242.799 99.0623 242.772 99.3481 242.691 99.8845C242.613 100.397 242.495 101.081 242.336 101.942C242.018 103.662 241.54 106.061 240.9 109.142L242.859 109.549C243.499 106.463 243.981 104.047 244.303 102.305C244.464 101.435 244.586 100.727 244.668 100.185C244.747 99.6664 244.799 99.2359 244.799 98.96H242.799ZM240.901 109.14C239.621 115.247 237.643 124.555 234.967 137.064L236.923 137.482C239.599 124.973 241.578 115.662 242.858 109.551L240.901 109.14ZM234.954 137.141L234.605 139.759L236.587 140.023L236.936 137.405L234.954 137.141ZM234.599 139.968C234.675 140.959 235.07 141.819 235.804 142.471L237.133 140.976C236.82 140.698 236.633 140.336 236.593 139.814L234.599 139.968ZM235.804 142.471C236.553 143.136 237.508 143.422 238.563 143.422V141.422C237.873 141.422 237.432 141.242 237.133 140.976L235.804 142.471ZM238.563 143.422C239.416 143.422 240.278 143.151 241.132 142.691L240.184 140.93C239.525 141.285 238.991 141.422 238.563 141.422V143.422ZM241.132 142.691C242.007 142.22 242.774 141.583 243.433 140.793L241.897 139.513C241.392 140.118 240.821 140.587 240.184 140.93L241.132 142.691ZM241.803 140.659L244.159 144.673L245.884 143.661L243.527 139.647L241.803 140.659ZM216.832 143.422C220.534 143.422 224.012 141.466 227.263 137.854L225.776 136.516C222.743 139.887 219.763 141.422 216.832 141.422V143.422ZM227.263 137.854C230.519 134.236 233.053 129.565 234.889 123.878L232.986 123.264C231.215 128.748 228.804 133.153 225.776 136.516L227.263 137.854ZM234.916 123.779L235.789 119.677L233.832 119.261L232.96 123.363L234.916 123.779ZM235.79 119.671C236.198 117.689 236.926 114.08 237.973 108.843L236.012 108.451C234.964 113.688 234.238 117.292 233.831 119.267L235.79 119.671ZM237.971 108.852C238.524 106.202 238.948 104.092 239.241 102.526C239.529 100.985 239.702 99.91 239.736 99.3715L237.74 99.2467C237.715 99.6391 237.569 100.586 237.275 102.158C236.986 103.704 236.565 105.798 236.013 108.443L237.971 108.852ZM239.737 99.2675C239.702 98.425 239.487 97.649 239.046 96.9871C238.603 96.3223 237.973 95.8363 237.212 95.5099L236.424 97.3482C236.884 97.5456 237.185 97.8014 237.382 98.0965C237.581 98.3947 237.715 98.7968 237.739 99.3507L239.737 99.2675ZM237.228 95.5172C235.852 94.8979 233.623 94.6436 230.709 94.6436V96.6436C233.612 96.6436 235.456 96.913 236.407 97.341L237.228 95.5172ZM230.709 94.6436C226.99 94.6436 223.224 96.8234 219.425 100.8L220.872 102.182C224.52 98.3621 227.795 96.6436 230.709 96.6436V94.6436ZM219.431 100.795C215.616 104.729 212.385 109.599 209.727 115.386L211.545 116.221C214.123 110.605 217.234 105.933 220.866 102.187L219.431 100.795ZM209.725 115.391C207.122 121.13 205.796 126.537 205.796 131.6H207.796C207.796 126.888 209.03 121.764 211.547 116.217L209.725 115.391ZM205.796 131.618C205.858 135.064 206.848 137.933 208.85 140.128L210.328 138.781C208.721 137.019 207.851 134.652 207.796 131.582L205.796 131.618ZM208.85 140.128C210.868 142.342 213.566 143.422 216.832 143.422V141.422C214.047 141.422 211.916 140.523 210.328 138.781L208.85 140.128Z"/><path fill="url(#paint1_linear)" d="M78.1969 93.0255L64.4951 77.7527L68.946 73.8255L82.6478 89.0982L78.1969 93.0255Z"/><path fill="#fff" d="M78.1969 93.0255L77.4525 93.6932L78.1148 94.4315L78.8585 93.7753L78.1969 93.0255ZM64.4951 77.7527L63.8334 77.0029L63.0774 77.67L63.7507 78.4205L64.4951 77.7527ZM68.946 73.8255L69.6903 73.1577L69.028 72.4194L68.2843 73.0756L68.946 73.8255ZM82.6478 89.0982L83.3094 89.848L84.0655 89.1809L83.3921 88.4304L82.6478 89.0982ZM78.9412 92.3577L65.2394 77.0849L63.7507 78.4205L77.4525 93.6932L78.9412 92.3577ZM65.1567 78.5026L69.6076 74.5753L68.2843 73.0756L63.8334 77.0029L65.1567 78.5026ZM68.2016 74.4932L81.9034 89.766L83.3921 88.4304L69.6903 73.1577L68.2016 74.4932ZM81.9862 88.3483L77.5353 92.2756L78.8585 93.7753L83.3094 89.848L81.9862 88.3483Z"/><path fill="url(#paint2_linear)" d="M273.197 93.0255L259.495 77.7527L263.946 73.8255L277.648 89.0982L273.197 93.0255Z"/><path fill="#fff" d="M273.197 93.0255L272.453 93.6932L273.115 94.4315L273.858 93.7753L273.197 93.0255ZM259.495 77.7527L258.833 77.0029L258.077 77.67L258.751 78.4205L259.495 77.7527ZM263.946 73.8255L264.69 73.1577L264.028 72.4194L263.284 73.0756L263.946 73.8255ZM277.648 89.0982L278.309 89.848L279.065 89.1809L278.392 88.4304L277.648 89.0982ZM273.941 92.3577L260.239 77.0849L258.751 78.4205L272.453 93.6932L273.941 92.3577ZM260.157 78.5026L264.608 74.5753L263.284 73.0756L258.833 77.0029L260.157 78.5026ZM263.202 74.4932L276.903 89.766L278.392 88.4304L264.69 73.1577L263.202 74.4932ZM276.986 88.3483L272.535 92.2756L273.858 93.7753L278.309 89.848L276.986 88.3483Z"/><defs><linearGradient id="paint0_linear" x1="173" x2="173" y1="0" y2="228" gradientUnits="userSpaceOnUse"><stop stop-color="#C229F8"/><stop offset="1" stop-color="#005DB4"/></linearGradient><linearGradient id="paint1_linear" x1="66" x2="66" y1="0" y2="228" gradientUnits="userSpaceOnUse"><stop stop-color="#C229F8"/><stop offset="1" stop-color="#005DB4"/></linearGradient><linearGradient id="paint2_linear" x1="261" x2="261" y1="0" y2="228" gradientUnits="userSpaceOnUse"><stop stop-color="#C229F8"/><stop offset="1" stop-color="#005DB4"/></linearGradient></defs></svg>